<svg width="61" height="53" viewBox="0 0 61 53" fill="none" xmlns="http://www.w3.org/2000/svg">
<path d="M61 26.3761C61 25.0583 60.4789 23.7944 59.5513 22.8626C58.6236 21.9308 57.3655 21.4073 56.0537 21.4073L16.879 21.4073L29.8713 8.35606C30.745 7.41415 31.2207 6.16835 31.1981 4.88111C31.1754 3.59386 30.6563 2.36568 29.7501 1.45532C28.8438 0.544964 27.6212 0.0234909 26.3398 0.000778198C25.0584 -0.0219345 23.8182 0.455887 22.8805 1.33357L1.44656 22.8648C0.520282 23.7965 0 25.0593 0 26.3761C0 27.6928 0.520282 28.9557 1.44656 29.8873L22.8805 51.4186C23.3334 51.9067 23.8794 52.2983 24.4862 52.5699C25.0929 52.8414 25.7479 52.9875 26.412 52.9992C27.0762 53.011 27.7359 52.8883 28.3518 52.6384C28.9677 52.3885 29.5272 52.0165 29.9969 51.5447C30.4665 51.0729 30.8368 50.5108 31.0856 49.8921C31.3344 49.2734 31.4565 48.6108 31.4448 47.9436C31.4331 47.2764 31.2877 46.6185 31.0174 46.009C30.747 45.3995 30.3573 44.8509 29.8713 44.3961L16.879 31.3448L56.0537 31.3448C58.7841 31.3448 61 29.1188 61 26.3761Z" fill="white"/>
</svg>
