<svg width="433" height="993" viewBox="0 0 433 993" fill="none" xmlns="http://www.w3.org/2000/svg">
<g clip-path="url(#clip0_266_648)">
<rect x="-119" width="552" height="1122" rx="100" fill="url(#paint0_linear_266_648)"/>
<mask id="path-3-outside-1_266_648" maskUnits="userSpaceOnUse" x="28" y="-2065" width="364" height="3084" fill="black">
<rect fill="white" x="28" y="-2065" width="364" height="3084"/>
<path d="M389.55 837.9V1017H30L30 876.6C30 846 40.95 819.6 62.85 797.4C84.75 775.2 111 764.25 141.6 764.55C157.8 764.85 173.4 768.6 188.4 775.8C198.6 760.8 211.8 749.1 228 740.7C243.9 732 261 727.65 279.3 727.65C309.6 728.25 335.55 739.35 357.15 760.95C378.75 782.25 389.55 807.9 389.55 837.9ZM116.85 930.15H166.35V874.8C166.35 867.6 163.2 861.6 156.9 856.8C150.3 852 143.1 850.5 135.3 852.3C129.9 853.5 125.55 856.35 122.25 860.85C118.65 865.35 116.85 870.3 116.85 875.7L116.85 930.15ZM302.7 837.9C302.7 830.7 299.55 824.7 293.25 819.9C286.65 815.1 279.45 813.6 271.65 815.4C266.25 816.6 261.9 819.45 258.6 823.95C255 828.15 253.2 833.1 253.2 838.8V930.15H302.7V837.9ZM30 705.428L30 483.128H93.9C100.2 483.128 105.6 485.378 110.1 489.878C114.6 494.378 116.85 499.928 116.85 506.528V618.578H166.35V516.878H253.2V618.578H302.7L302.7 506.078C302.7 499.778 304.95 494.378 309.45 489.878C313.95 485.378 319.5 483.128 326.1 483.128H389.55L389.55 705.428H30ZM251.85 350.402C251.85 380.702 240.9 406.652 219 428.252C197.1 449.852 170.85 460.652 140.25 460.652C109.95 460.652 84 449.852 62.4 428.252C40.8 406.652 30 380.702 30 350.402L30 208.202H93.9C100.2 208.202 105.6 210.602 110.1 215.402C114.6 219.902 116.85 225.302 116.85 231.602V350.402C116.85 356.702 119.25 362.252 124.05 367.052C128.55 371.552 133.95 373.802 140.25 373.802C146.85 373.802 152.55 371.552 157.35 367.052C162.15 362.252 164.55 356.702 164.55 350.402L164.55 318.452C164.55 288.152 175.5 262.202 197.4 240.602C219.3 219.002 245.55 208.202 276.15 208.202C306.75 208.202 333.3 219.152 355.8 241.052C378.3 262.652 389.55 288.452 389.55 318.452V460.652H326.1C319.5 460.652 313.95 458.402 309.45 453.902C304.95 449.402 302.7 443.852 302.7 437.252V318.452C302.7 312.452 300 307.202 294.6 302.702C288.9 297.902 282.75 295.502 276.15 295.502C269.55 295.502 263.85 297.752 259.05 302.252C254.25 306.752 251.85 312.152 251.85 318.452L251.85 350.402ZM30 -68.7059H95.7C101.4 -68.7059 106.35 -66.6059 110.55 -62.4059C114.75 -58.5059 116.85 -53.5559 116.85 -47.5559L116.85 14.9941H389.55V78.8941C389.55 85.1941 387.3 90.5941 382.8 95.0941C378.3 99.5941 372.9 101.844 366.6 101.844H116.85V164.394C116.85 170.394 114.75 175.494 110.55 179.694C106.35 183.894 101.4 185.994 95.7 185.994H30L30 -68.7059ZM30 -203.801L30 -329.801C30 -364.601 42.3 -394.301 66.9 -418.901C91.5 -443.801 121.35 -456.251 156.45 -456.251C191.25 -456.251 220.95 -443.801 245.55 -418.901C270.15 -394.301 282.45 -364.601 282.45 -329.801V-290.651H366.6C372.9 -290.651 378.3 -288.401 382.8 -283.901C387.3 -279.401 389.55 -274.001 389.55 -267.701V-203.801H30ZM195.6 -329.801C195.6 -340.601 191.7 -349.751 183.9 -357.251C176.1 -365.051 166.8 -368.951 156 -368.951C145.2 -368.951 136.05 -365.051 128.55 -357.251C120.75 -349.751 116.85 -340.601 116.85 -329.801V-290.651H195.6V-329.801ZM390 -478.459H30L30 -542.359C30 -548.659 32.25 -554.059 36.75 -558.559C41.25 -563.059 46.8 -565.309 53.4 -565.309H303.15V-677.809C303.15 -684.109 305.4 -689.509 309.9 -694.009C314.4 -698.809 319.8 -701.209 326.1 -701.209H390V-478.459ZM30 -846.534L30 -975.684H390V-911.784C390 -905.484 387.75 -900.084 383.25 -895.584C378.75 -891.084 373.2 -888.834 366.6 -888.834H280.2V-810.084H366.6C373.2 -810.084 378.75 -807.834 383.25 -803.334C387.75 -798.834 390 -793.434 390 -787.134V-723.234H153.3C119.1 -723.234 90 -735.234 66 -759.234C42 -783.234 30 -812.334 30 -846.534ZM117.3 -846.534C117.3 -836.334 120.75 -827.784 127.65 -820.884C134.55 -813.984 143.1 -810.534 153.3 -810.534H193.35V-888.834H117.3V-846.534ZM30 -1186.88L30 -1250.78H125.4C152.4 -1250.78 176.7 -1243.13 198.3 -1227.83C219.9 -1212.53 235.2 -1192.58 244.2 -1167.98H389.55V-1097.33C389.55 -1092.83 388.05 -1088.93 385.05 -1085.63C381.75 -1082.63 377.85 -1081.13 373.35 -1081.13H244.2C235.2 -1056.53 219.9 -1036.58 198.3 -1021.28C176.7 -1005.98 152.4 -998.332 125.4 -998.332H30L30 -1062.23C30 -1068.53 32.25 -1073.93 36.75 -1078.43C41.25 -1082.93 46.8 -1085.18 53.4 -1085.18H125.4C136.2 -1085.18 145.5 -1088.93 153.3 -1096.43C161.1 -1104.23 165 -1113.53 165 -1124.33C165 -1135.13 161.1 -1144.43 153.3 -1152.23C145.5 -1160.03 136.2 -1163.93 125.4 -1163.93H53.4C46.8 -1163.93 41.25 -1166.18 36.75 -1170.68C32.25 -1175.18 30 -1180.58 30 -1186.88ZM30 -1272.99L30 -1495.29H93.9C100.2 -1495.29 105.6 -1493.04 110.1 -1488.54C114.6 -1484.04 116.85 -1478.49 116.85 -1471.89L116.85 -1359.84H166.35V-1461.54H253.2V-1359.84H302.7V-1472.34C302.7 -1478.64 304.95 -1484.04 309.45 -1488.54C313.95 -1493.04 319.5 -1495.29 326.1 -1495.29H389.55L389.55 -1272.99H30ZM250.5 -1727.92L390 -1787.32V-1707.67C390 -1702.87 388.8 -1698.52 386.4 -1694.62C383.7 -1690.72 380.1 -1687.87 375.6 -1686.07L282.45 -1646.47C282.45 -1645.87 282.45 -1644.97 282.45 -1643.77V-1604.62H366.6C373.2 -1604.62 378.75 -1602.37 383.25 -1597.87C387.75 -1593.37 390 -1587.97 390 -1581.67V-1517.77H30L30 -1643.77C30 -1678.87 42.3 -1708.72 66.9 -1733.32C91.5 -1757.92 121.35 -1770.22 156.45 -1770.22C174.75 -1770.22 192.15 -1766.47 208.65 -1758.97C224.85 -1751.47 238.8 -1741.12 250.5 -1727.92ZM117.3 -1605.07H195.6V-1644.22C195.6 -1655.02 191.85 -1664.17 184.35 -1671.67C176.55 -1679.47 167.25 -1683.37 156.45 -1683.37C145.65 -1683.37 136.5 -1679.47 129 -1671.67C121.2 -1664.17 117.3 -1655.02 117.3 -1644.22V-1605.07ZM251.85 -1920.25C251.85 -1889.95 240.9 -1864 219 -1842.4C197.1 -1820.8 170.85 -1810 140.25 -1810C109.95 -1810 84 -1820.8 62.4 -1842.4C40.8 -1864 30 -1889.95 30 -1920.25L30 -2062.45H93.9C100.2 -2062.45 105.6 -2060.05 110.1 -2055.25C114.6 -2050.75 116.85 -2045.35 116.85 -2039.05V-1920.25C116.85 -1913.95 119.25 -1908.4 124.05 -1903.6C128.55 -1899.1 133.95 -1896.85 140.25 -1896.85C146.85 -1896.85 152.55 -1899.1 157.35 -1903.6C162.15 -1908.4 164.55 -1913.95 164.55 -1920.25V-1952.2C164.55 -1982.5 175.5 -2008.45 197.4 -2030.05C219.3 -2051.65 245.55 -2062.45 276.15 -2062.45C306.75 -2062.45 333.3 -2051.5 355.8 -2029.6C378.3 -2008 389.55 -1982.2 389.55 -1952.2V-1810H326.1C319.5 -1810 313.95 -1812.25 309.45 -1816.75C304.95 -1821.25 302.7 -1826.8 302.7 -1833.4V-1952.2C302.7 -1958.2 300 -1963.45 294.6 -1967.95C288.9 -1972.75 282.75 -1975.15 276.15 -1975.15C269.55 -1975.15 263.85 -1972.9 259.05 -1968.4C254.25 -1963.9 251.85 -1958.5 251.85 -1952.2V-1920.25Z"/>
</mask>
<path d="M389.55 1017V1019H391.55V1017H389.55ZM30 1017H28V1019H30V1017ZM62.85 797.4L61.4262 795.995L62.85 797.4ZM141.6 764.55L141.637 762.55L141.628 762.55L141.62 762.55L141.6 764.55ZM188.4 775.8L187.535 777.603L189.086 778.348L190.054 776.925L188.4 775.8ZM228 740.7L228.921 742.475L228.94 742.465L228.96 742.455L228 740.7ZM279.3 727.65L279.34 725.65L279.32 725.65H279.3V727.65ZM357.15 760.95L355.736 762.364L355.746 762.374L357.15 760.95ZM116.85 930.15H114.85V932.15H116.85V930.15ZM166.35 930.15V932.15H168.35V930.15H166.35ZM156.9 856.8L158.112 855.209L158.094 855.196L158.076 855.183L156.9 856.8ZM135.3 852.3L135.734 854.252L135.742 854.251L135.75 854.249L135.3 852.3ZM122.25 860.85L123.812 862.099L123.838 862.067L123.863 862.033L122.25 860.85ZM293.25 819.9L294.462 818.309L294.444 818.296L294.426 818.283L293.25 819.9ZM271.65 815.4L272.084 817.352L272.092 817.351L272.1 817.349L271.65 815.4ZM258.6 823.95L260.118 825.252L260.168 825.194L260.213 825.133L258.6 823.95ZM253.2 930.15H251.2V932.15H253.2V930.15ZM302.7 930.15V932.15H304.7V930.15H302.7ZM387.55 837.9V1017H391.55V837.9H387.55ZM389.55 1015H30V1019H389.55V1015ZM32 1017L32 876.6H28L28 1017H32ZM32 876.6C32 846.537 42.7351 820.638 64.2738 798.805L61.4262 795.995C39.1649 818.562 28 845.463 28 876.6H32ZM64.2738 798.805C85.8013 776.982 111.534 766.255 141.58 766.55L141.62 762.55C110.466 762.245 83.6986 773.418 61.4262 795.995L64.2738 798.805ZM141.563 766.55C157.468 766.844 172.786 770.524 187.535 777.603L189.265 773.997C174.014 766.676 158.132 762.856 141.637 762.55L141.563 766.55ZM190.054 776.925C200.066 762.201 213.013 750.724 228.921 742.475L227.079 738.924C210.587 747.476 197.134 759.399 186.746 774.675L190.054 776.925ZM228.96 742.455C244.563 733.917 261.332 729.65 279.3 729.65V725.65C260.668 725.65 243.237 730.083 227.04 738.945L228.96 742.455ZM279.26 729.65C309.039 730.239 334.498 741.126 355.736 762.364L358.564 759.536C336.602 737.574 310.161 726.261 279.34 725.65L279.26 729.65ZM355.746 762.374C376.969 783.303 387.55 808.442 387.55 837.9H391.55C391.55 807.358 380.531 781.197 358.554 759.526L355.746 762.374ZM116.85 932.15H166.35V928.15H116.85V932.15ZM168.35 930.15V874.8H164.35V930.15H168.35ZM168.35 874.8C168.35 866.907 164.851 860.344 158.112 855.209L155.688 858.391C161.549 862.856 164.35 868.293 164.35 874.8H168.35ZM158.076 855.183C151.018 850.049 143.227 848.418 134.85 850.351L135.75 854.249C142.973 852.582 149.582 853.951 155.724 858.417L158.076 855.183ZM134.866 850.348C128.988 851.654 124.221 854.78 120.637 859.667L123.863 862.033C126.879 857.92 130.812 855.346 135.734 854.252L134.866 850.348ZM120.688 859.601C116.825 864.43 114.85 869.814 114.85 875.7H118.85C118.85 870.786 120.475 866.27 123.812 862.099L120.688 859.601ZM114.85 875.7L114.85 930.15H118.85L118.85 875.7H114.85ZM304.7 837.9C304.7 830.007 301.201 823.444 294.462 818.309L292.038 821.491C297.899 825.956 300.7 831.393 300.7 837.9H304.7ZM294.426 818.283C287.368 813.149 279.577 811.518 271.2 813.451L272.1 817.349C279.323 815.682 285.932 817.051 292.074 821.517L294.426 818.283ZM271.216 813.448C265.338 814.754 260.571 817.88 256.987 822.767L260.213 825.133C263.229 821.02 267.162 818.446 272.084 817.352L271.216 813.448ZM257.081 822.648C253.161 827.223 251.2 832.638 251.2 838.8H255.2C255.2 833.562 256.839 829.077 260.118 825.252L257.081 822.648ZM251.2 838.8V930.15H255.2V838.8H251.2ZM253.2 932.15H302.7V928.15H253.2V932.15ZM304.7 930.15V837.9H300.7V930.15H304.7ZM30 705.428H28V707.428H30V705.428ZM30 483.128V481.128H28V483.128H30ZM110.1 489.878L111.514 488.464L110.1 489.878ZM116.85 618.578H114.85V620.578H116.85V618.578ZM166.35 618.578V620.578H168.35V618.578H166.35ZM166.35 516.878V514.878H164.35V516.878H166.35ZM253.2 516.878H255.2V514.878H253.2V516.878ZM253.2 618.578H251.2V620.578H253.2V618.578ZM302.7 618.578V620.578H304.7V618.578H302.7ZM309.45 489.878L308.036 488.464L309.45 489.878ZM389.55 483.128H391.55V481.128H389.55V483.128ZM389.55 705.428V707.428H391.55V705.428H389.55ZM32 705.428L32 483.128H28L28 705.428H32ZM30 485.128H93.9V481.128H30V485.128ZM93.9 485.128C99.6635 485.128 104.557 487.163 108.686 491.292L111.514 488.464C106.643 483.593 100.736 481.128 93.9 481.128V485.128ZM108.686 491.292C112.795 495.402 114.85 500.436 114.85 506.528H118.85C118.85 499.419 116.405 493.354 111.514 488.464L108.686 491.292ZM114.85 506.528V618.578H118.85V506.528H114.85ZM116.85 620.578H166.35V616.578H116.85V620.578ZM168.35 618.578V516.878H164.35V618.578H168.35ZM166.35 518.878H253.2V514.878H166.35V518.878ZM251.2 516.878V618.578H255.2V516.878H251.2ZM253.2 620.578H302.7V616.578H253.2V620.578ZM304.7 618.578L304.7 506.078H300.7L300.7 618.578H304.7ZM304.7 506.078C304.7 500.314 306.735 495.421 310.864 491.292L308.036 488.464C303.165 493.334 300.7 499.241 300.7 506.078H304.7ZM310.864 491.292C314.974 487.182 320.008 485.128 326.1 485.128V481.128C318.992 481.128 312.926 483.573 308.036 488.464L310.864 491.292ZM326.1 485.128H389.55V481.128H326.1V485.128ZM387.55 483.128L387.55 705.428H391.55L391.55 483.128H387.55ZM389.55 703.428H30V707.428H389.55V703.428ZM219 428.252L217.596 426.828L219 428.252ZM62.4 428.252L60.9858 429.667L62.4 428.252ZM30 208.202V206.202H28V208.202H30ZM110.1 215.402L108.641 216.77L108.663 216.794L108.686 216.817L110.1 215.402ZM124.05 367.052L125.464 365.638L124.05 367.052ZM157.35 367.052L158.718 368.511L158.741 368.489L158.764 368.467L157.35 367.052ZM197.4 240.602L198.804 242.026L197.4 240.602ZM355.8 241.052L354.405 242.486L354.415 242.495L355.8 241.052ZM389.55 460.652V462.652H391.55V460.652H389.55ZM294.6 302.702L293.312 304.232L293.32 304.239L294.6 302.702ZM259.05 302.252L257.682 300.793L259.05 302.252ZM249.85 350.402C249.85 380.158 239.121 405.598 217.596 426.828L220.404 429.676C242.679 407.707 253.85 381.247 253.85 350.402H249.85ZM217.596 426.828C196.068 448.061 170.321 458.652 140.25 458.652V462.652C171.379 462.652 198.132 451.643 220.404 429.676L217.596 426.828ZM140.25 458.652C110.485 458.652 85.0426 448.066 63.8142 426.838L60.9858 429.667C82.9574 451.638 109.415 462.652 140.25 462.652V458.652ZM63.8142 426.838C42.5858 405.61 32 380.167 32 350.402H28C28 381.238 39.0141 407.695 60.9858 429.667L63.8142 426.838ZM32 350.402L32 208.202H28L28 350.402H32ZM30 210.202H93.9V206.202H30V210.202ZM93.9 210.202C99.6201 210.202 104.5 212.353 108.641 216.77L111.559 214.034C106.7 208.851 100.78 206.202 93.9 206.202V210.202ZM108.686 216.817C112.815 220.946 114.85 225.839 114.85 231.602H118.85C118.85 224.766 116.385 218.859 111.514 213.988L108.686 216.817ZM114.85 231.602V350.402H118.85V231.602H114.85ZM114.85 350.402C114.85 357.277 117.493 363.324 122.636 368.467L125.464 365.638C121.007 361.181 118.85 356.128 118.85 350.402H114.85ZM122.636 368.467C127.507 373.337 133.414 375.802 140.25 375.802V371.802C134.486 371.802 129.593 369.767 125.464 365.638L122.636 368.467ZM140.25 375.802C147.356 375.802 153.546 373.36 158.718 368.511L155.982 365.593C151.554 369.745 146.344 371.802 140.25 371.802V375.802ZM158.764 368.467C163.907 363.324 166.55 357.277 166.55 350.402H162.55C162.55 356.128 160.393 361.181 155.936 365.638L158.764 368.467ZM166.55 350.402L166.55 318.452H162.55L162.55 350.402H166.55ZM166.55 318.452C166.55 288.697 177.279 263.257 198.804 242.026L195.996 239.178C173.721 261.148 162.55 287.608 162.55 318.452H166.55ZM198.804 242.026C220.332 220.793 246.079 210.202 276.15 210.202V206.202C245.021 206.202 218.268 217.211 195.996 239.178L198.804 242.026ZM276.15 210.202C306.214 210.202 332.268 220.938 354.405 242.486L357.195 239.619C334.332 217.366 307.286 206.202 276.15 206.202V210.202ZM354.415 242.495C376.54 263.735 387.55 289.021 387.55 318.452H391.55C391.55 287.884 380.06 261.57 357.185 239.61L354.415 242.495ZM387.55 318.452V460.652H391.55V318.452H387.55ZM389.55 458.652H326.1V462.652H389.55V458.652ZM326.1 458.652C320.008 458.652 314.974 456.598 310.864 452.488L308.036 455.317C312.926 460.207 318.992 462.652 326.1 462.652V458.652ZM310.864 452.488C306.755 448.378 304.7 443.344 304.7 437.252H300.7C300.7 444.361 303.145 450.426 308.036 455.317L310.864 452.488ZM304.7 437.252V318.452H300.7V437.252H304.7ZM304.7 318.452C304.7 311.754 301.649 305.973 295.88 301.166L293.32 304.239C298.351 308.431 300.7 313.15 300.7 318.452H304.7ZM295.888 301.173C289.877 296.111 283.282 293.502 276.15 293.502V297.502C282.218 297.502 287.923 299.694 293.312 304.232L295.888 301.173ZM276.15 293.502C269.044 293.502 262.854 295.945 257.682 300.793L260.418 303.711C264.846 299.56 270.056 297.502 276.15 297.502V293.502ZM257.682 300.793C252.499 305.652 249.85 311.573 249.85 318.452H253.85C253.85 312.732 256.001 307.852 260.418 303.711L257.682 300.793ZM249.85 318.452L249.85 350.402H253.85L253.85 318.452H249.85ZM30 -68.7059V-70.7059H28V-68.7059H30ZM110.55 -62.4059L109.136 -60.9917L109.162 -60.9655L109.189 -60.9403L110.55 -62.4059ZM116.85 14.9941H114.85V16.9941H116.85V14.9941ZM389.55 14.9941H391.55V12.9941H389.55V14.9941ZM382.8 95.0941L381.386 93.6799L382.8 95.0941ZM116.85 101.844V99.8441H114.85V101.844H116.85ZM30 185.994H28V187.994H30V185.994ZM30 -66.7059H95.7V-70.7059H30V-66.7059ZM95.7 -66.7059C100.845 -66.7059 105.293 -64.8342 109.136 -60.9917L111.964 -63.8201C107.407 -68.3776 101.955 -70.7059 95.7 -70.7059V-66.7059ZM109.189 -60.9403C112.961 -57.4382 114.85 -53.0291 114.85 -47.5559H118.85C118.85 -54.0826 116.539 -59.5735 111.911 -63.8715L109.189 -60.9403ZM114.85 -47.5559L114.85 14.9941H118.85L118.85 -47.5559H114.85ZM116.85 16.9941H389.55V12.9941H116.85V16.9941ZM387.55 14.9941V78.8942H391.55V14.9941H387.55ZM387.55 78.8942C387.55 84.6577 385.515 89.5507 381.386 93.6799L384.214 96.5084C389.085 91.6376 391.55 85.7306 391.55 78.8942H387.55ZM381.386 93.6799C377.257 97.8091 372.364 99.8441 366.6 99.8441V103.844C373.436 103.844 379.343 101.379 384.214 96.5084L381.386 93.6799ZM366.6 99.8441H116.85V103.844H366.6V99.8441ZM114.85 101.844V164.394H118.85V101.844H114.85ZM114.85 164.394C114.85 169.87 112.956 174.459 109.136 178.28L111.964 181.108C116.544 176.529 118.85 170.919 118.85 164.394H114.85ZM109.136 178.28C105.293 182.122 100.845 183.994 95.7 183.994V187.994C101.955 187.994 107.407 185.666 111.964 181.108L109.136 178.28ZM95.7 183.994H30V187.994H95.7V183.994ZM32 185.994L32 -68.7059H28L28 185.994H32ZM30 -203.801H28V-201.801H30V-203.801ZM66.9 -418.901L68.3142 -417.487L68.3227 -417.495L66.9 -418.901ZM245.55 -418.901L244.127 -417.495L244.136 -417.487L245.55 -418.901ZM282.45 -290.651H280.45V-288.651H282.45V-290.651ZM382.8 -283.901L381.386 -282.487L382.8 -283.901ZM389.55 -203.801V-201.801H391.55V-203.801H389.55ZM183.9 -357.251L182.486 -355.837L182.5 -355.823L182.514 -355.809L183.9 -357.251ZM128.55 -357.251L129.936 -355.809L129.964 -355.836L129.992 -355.865L128.55 -357.251ZM116.85 -290.651H114.85V-288.651H116.85V-290.651ZM195.6 -290.651V-288.651H197.6V-290.651H195.6ZM32 -203.801L32 -329.801H28L28 -203.801H32ZM32 -329.801C32 -364.071 44.0894 -393.262 68.3142 -417.487L65.4858 -420.315C40.5106 -395.34 28 -365.131 28 -329.801H32ZM68.3227 -417.495C92.5458 -442.014 121.883 -454.251 156.45 -454.251V-458.251C120.817 -458.251 90.4541 -445.588 65.4772 -420.306L68.3227 -417.495ZM156.45 -454.251C190.712 -454.251 219.901 -442.017 244.127 -417.495L246.973 -420.306C221.999 -445.584 191.788 -458.251 156.45 -458.251V-454.251ZM244.136 -417.487C268.361 -393.262 280.45 -364.071 280.45 -329.801H284.45C284.45 -365.131 271.939 -395.34 246.964 -420.315L244.136 -417.487ZM280.45 -329.801V-290.651H284.45V-329.801H280.45ZM282.45 -288.651H366.6V-292.651H282.45V-288.651ZM366.6 -288.651C372.364 -288.651 377.257 -286.616 381.386 -282.487L384.214 -285.315C379.343 -290.186 373.436 -292.651 366.6 -292.651V-288.651ZM381.386 -282.487C385.515 -278.357 387.55 -273.464 387.55 -267.701H391.55C391.55 -274.537 389.085 -280.444 384.214 -285.315L381.386 -282.487ZM387.55 -267.701V-203.801H391.55V-267.701H387.55ZM389.55 -205.801H30V-201.801H389.55V-205.801ZM197.6 -329.801C197.6 -341.146 193.478 -350.816 185.286 -358.693L182.514 -355.809C189.922 -348.685 193.6 -340.056 193.6 -329.801H197.6ZM185.314 -358.665C177.148 -366.831 167.343 -370.951 156 -370.951V-366.951C166.257 -366.951 175.052 -363.271 182.486 -355.837L185.314 -358.665ZM156 -370.951C144.655 -370.951 134.985 -366.828 127.108 -358.637L129.992 -355.865C137.115 -363.273 145.745 -366.951 156 -366.951V-370.951ZM127.164 -358.693C118.972 -350.816 114.85 -341.146 114.85 -329.801H118.85C118.85 -340.056 122.527 -348.685 129.936 -355.809L127.164 -358.693ZM114.85 -329.801V-290.651H118.85V-329.801H114.85ZM116.85 -288.651H195.6V-292.651H116.85V-288.651ZM197.6 -290.651V-329.801H193.6V-290.651H197.6ZM390 -478.459V-476.459H392V-478.459H390ZM30 -478.459H28V-476.459H30V-478.459ZM303.15 -565.309V-563.309H305.15V-565.309H303.15ZM309.9 -694.009L311.314 -692.595L311.337 -692.618L311.359 -692.641L309.9 -694.009ZM390 -701.209H392V-703.209H390V-701.209ZM390 -480.459H30V-476.459H390V-480.459ZM32 -478.459L32 -542.359H28L28 -478.459H32ZM32 -542.359C32 -548.123 34.035 -553.016 38.1642 -557.145L35.3358 -559.973C30.465 -555.102 28 -549.195 28 -542.359H32ZM38.1642 -557.145C42.2739 -561.254 47.3085 -563.309 53.4 -563.309V-567.309C46.2915 -567.309 40.2261 -564.864 35.3358 -559.973L38.1642 -557.145ZM53.4 -563.309H303.15V-567.309H53.4V-563.309ZM305.15 -565.309V-677.809H301.15V-565.309H305.15ZM305.15 -677.809C305.15 -683.573 307.185 -688.466 311.314 -692.595L308.486 -695.423C303.615 -690.552 301.15 -684.646 301.15 -677.809H305.15ZM311.359 -692.641C315.5 -697.058 320.38 -699.209 326.1 -699.209V-703.209C319.22 -703.209 313.3 -700.56 308.441 -695.377L311.359 -692.641ZM326.1 -699.209H390V-703.209H326.1V-699.209ZM388 -701.209V-478.459H392V-701.209H388ZM30 -975.684V-977.684H28V-975.684H30ZM390 -975.684H392V-977.684H390V-975.684ZM383.25 -895.584L384.664 -894.17L383.25 -895.584ZM280.2 -888.834V-890.834H278.2V-888.834H280.2ZM280.2 -810.084H278.2V-808.084H280.2V-810.084ZM390 -723.234V-721.234H392V-723.234H390ZM127.65 -820.884L129.064 -822.299L127.65 -820.884ZM193.35 -810.534V-808.534H195.35V-810.534H193.35ZM193.35 -888.834H195.35V-890.834H193.35V-888.834ZM117.3 -888.834V-890.834H115.3V-888.834H117.3ZM32 -846.534L32 -975.684H28L28 -846.534H32ZM30 -973.684H390V-977.684H30V-973.684ZM388 -975.684V-911.784H392V-975.684H388ZM388 -911.784C388 -906.021 385.965 -901.128 381.836 -896.999L384.664 -894.17C389.535 -899.041 392 -904.948 392 -911.784H388ZM381.836 -896.999C377.726 -892.889 372.692 -890.834 366.6 -890.834V-886.834C373.708 -886.834 379.774 -889.28 384.664 -894.17L381.836 -896.999ZM366.6 -890.834H280.2V-886.834H366.6V-890.834ZM278.2 -888.834V-810.084H282.2V-888.834H278.2ZM280.2 -808.084H366.6V-812.084H280.2V-808.084ZM366.6 -808.084C372.692 -808.084 377.726 -806.03 381.836 -801.92L384.664 -804.749C379.774 -809.639 373.708 -812.084 366.6 -812.084V-808.084ZM381.836 -801.92C385.965 -797.791 388 -792.898 388 -787.134H392C392 -793.971 389.535 -799.878 384.664 -804.749L381.836 -801.92ZM388 -787.134V-723.234H392V-787.134H388ZM390 -725.234H153.3V-721.234H390V-725.234ZM153.3 -725.234C119.626 -725.234 91.0359 -737.027 67.4142 -760.649L64.5858 -757.82C88.9641 -733.442 118.574 -721.234 153.3 -721.234V-725.234ZM67.4142 -760.649C43.7925 -784.27 32 -812.86 32 -846.534H28C28 -811.808 40.2075 -782.198 64.5858 -757.82L67.4142 -760.649ZM115.3 -846.534C115.3 -835.831 118.942 -826.764 126.236 -819.47L129.064 -822.299C122.558 -828.805 119.3 -836.838 119.3 -846.534H115.3ZM126.236 -819.47C133.529 -812.177 142.596 -808.534 153.3 -808.534V-812.534C143.604 -812.534 135.571 -815.792 129.064 -822.299L126.236 -819.47ZM153.3 -808.534H193.35V-812.534H153.3V-808.534ZM195.35 -810.534V-888.834H191.35V-810.534H195.35ZM193.35 -890.834H117.3V-886.834H193.35V-890.834ZM115.3 -888.834V-846.534H119.3V-888.834H115.3ZM30 -1250.78V-1252.78H28V-1250.78H30ZM198.3 -1227.83L199.456 -1229.46L198.3 -1227.83ZM244.2 -1167.98L242.322 -1167.29L242.802 -1165.98H244.2V-1167.98ZM389.55 -1167.98H391.55V-1169.98H389.55V-1167.98ZM385.05 -1085.63L386.395 -1084.15L386.466 -1084.22L386.53 -1084.29L385.05 -1085.63ZM244.2 -1081.13V-1083.13H242.802L242.322 -1081.82L244.2 -1081.13ZM198.3 -1021.28L197.144 -1022.91L198.3 -1021.28ZM30 -998.332H28V-996.332H30V-998.332ZM153.3 -1096.43L154.686 -1094.99L154.7 -1095L154.714 -1095.02L153.3 -1096.43ZM153.3 -1152.23L151.886 -1150.82L153.3 -1152.23ZM36.75 -1170.68L35.3358 -1169.27H35.3358L36.75 -1170.68ZM32 -1186.88L32 -1250.78H28L28 -1186.88H32ZM30 -1248.78H125.4V-1252.78H30V-1248.78ZM125.4 -1248.78C151.995 -1248.78 175.889 -1241.26 197.144 -1226.2L199.456 -1229.46C177.511 -1245.01 152.805 -1252.78 125.4 -1252.78V-1248.78ZM197.144 -1226.2C218.417 -1211.13 233.463 -1191.51 242.322 -1167.29L246.078 -1168.67C236.937 -1193.65 221.383 -1213.93 199.456 -1229.46L197.144 -1226.2ZM244.2 -1165.98H389.55V-1169.98H244.2V-1165.98ZM387.55 -1167.98V-1097.33H391.55V-1167.98H387.55ZM387.55 -1097.33C387.55 -1093.32 386.232 -1089.91 383.57 -1086.98L386.53 -1084.29C389.868 -1087.96 391.55 -1092.34 391.55 -1097.33H387.55ZM383.705 -1087.11C380.776 -1084.45 377.357 -1083.13 373.35 -1083.13V-1079.13C378.343 -1079.13 382.724 -1080.81 386.395 -1084.15L383.705 -1087.11ZM373.35 -1083.13H244.2V-1079.13H373.35V-1083.13ZM242.322 -1081.82C233.463 -1057.6 218.417 -1037.98 197.144 -1022.91L199.456 -1019.65C221.383 -1035.18 236.937 -1055.46 246.078 -1080.44L242.322 -1081.82ZM197.144 -1022.91C175.889 -1007.86 151.995 -1000.33 125.4 -1000.33V-996.332C152.805 -996.332 177.511 -1004.11 199.456 -1019.65L197.144 -1022.91ZM125.4 -1000.33H30V-996.332H125.4V-1000.33ZM32 -998.332L32 -1062.23H28L28 -998.332H32ZM32 -1062.23C32 -1068 34.035 -1072.89 38.1642 -1077.02L35.3358 -1079.85C30.465 -1074.98 28 -1069.07 28 -1062.23H32ZM38.1642 -1077.02C42.2739 -1081.13 47.3085 -1083.18 53.4 -1083.18V-1087.18C46.2915 -1087.18 40.2261 -1084.74 35.3358 -1079.85L38.1642 -1077.02ZM53.4 -1083.18H125.4V-1087.18H53.4V-1083.18ZM125.4 -1083.18C136.718 -1083.18 146.514 -1087.13 154.686 -1094.99L151.914 -1097.87C144.486 -1090.73 135.682 -1087.18 125.4 -1087.18V-1083.18ZM154.714 -1095.02C162.88 -1103.18 167 -1112.99 167 -1124.33H163C163 -1114.07 159.32 -1105.28 151.886 -1097.85L154.714 -1095.02ZM167 -1124.33C167 -1135.68 162.88 -1145.48 154.714 -1153.65L151.886 -1150.82C159.32 -1143.38 163 -1134.59 163 -1124.33H167ZM154.714 -1153.65C146.548 -1161.81 136.743 -1165.93 125.4 -1165.93V-1161.93C135.657 -1161.93 144.452 -1158.25 151.886 -1150.82L154.714 -1153.65ZM125.4 -1165.93H53.4V-1161.93H125.4V-1165.93ZM53.4 -1165.93C47.3084 -1165.93 42.2739 -1167.99 38.1642 -1172.1L35.3358 -1169.27C40.2261 -1164.38 46.2915 -1161.93 53.4 -1161.93V-1165.93ZM38.1642 -1172.1C34.035 -1176.23 32 -1181.12 32 -1186.88H28C28 -1180.05 30.465 -1174.14 35.3358 -1169.27L38.1642 -1172.1ZM30 -1272.99H28V-1270.99H30V-1272.99ZM30 -1495.29V-1497.29H28V-1495.29H30ZM110.1 -1488.54L111.514 -1489.95L110.1 -1488.54ZM116.85 -1359.84H114.85V-1357.84H116.85V-1359.84ZM166.35 -1359.84V-1357.84H168.35V-1359.84H166.35ZM166.35 -1461.54V-1463.54H164.35V-1461.54H166.35ZM253.2 -1461.54H255.2V-1463.54H253.2V-1461.54ZM253.2 -1359.84H251.2V-1357.84H253.2V-1359.84ZM302.7 -1359.84V-1357.84H304.7V-1359.84H302.7ZM309.45 -1488.54L308.036 -1489.95L309.45 -1488.54ZM389.55 -1495.29H391.55V-1497.29H389.55V-1495.29ZM389.55 -1272.99V-1270.99H391.55V-1272.99H389.55ZM32 -1272.99L32 -1495.29H28L28 -1272.99H32ZM30 -1493.29H93.9V-1497.29H30V-1493.29ZM93.9 -1493.29C99.6635 -1493.29 104.557 -1491.26 108.686 -1487.13L111.514 -1489.95C106.643 -1494.83 100.736 -1497.29 93.9 -1497.29V-1493.29ZM108.686 -1487.13C112.795 -1483.02 114.85 -1477.98 114.85 -1471.89H118.85C118.85 -1479 116.405 -1485.06 111.514 -1489.95L108.686 -1487.13ZM114.85 -1471.89L114.85 -1359.84H118.85L118.85 -1471.89H114.85ZM116.85 -1357.84H166.35V-1361.84H116.85V-1357.84ZM168.35 -1359.84V-1461.54H164.35V-1359.84H168.35ZM166.35 -1459.54H253.2V-1463.54H166.35V-1459.54ZM251.2 -1461.54V-1359.84H255.2V-1461.54H251.2ZM253.2 -1357.84H302.7V-1361.84H253.2V-1357.84ZM304.7 -1359.84V-1472.34H300.7V-1359.84H304.7ZM304.7 -1472.34C304.7 -1478.1 306.735 -1483 310.864 -1487.13L308.036 -1489.95C303.165 -1485.08 300.7 -1479.18 300.7 -1472.34H304.7ZM310.864 -1487.13C314.974 -1491.24 320.008 -1493.29 326.1 -1493.29V-1497.29C318.992 -1497.29 312.926 -1494.84 308.036 -1489.95L310.864 -1487.13ZM326.1 -1493.29H389.55V-1497.29H326.1V-1493.29ZM387.55 -1495.29L387.55 -1272.99H391.55L391.55 -1495.29H387.55ZM389.55 -1274.99H30L30 -1270.99H389.55V-1274.99ZM250.5 -1727.92L249.003 -1726.59L249.959 -1725.51L251.284 -1726.08L250.5 -1727.92ZM390 -1787.32H392V-1790.34L389.216 -1789.16L390 -1787.32ZM386.4 -1694.62L388.044 -1693.48L388.075 -1693.52L388.103 -1693.57L386.4 -1694.62ZM375.6 -1686.07L374.857 -1687.92L374.837 -1687.91L374.818 -1687.91L375.6 -1686.07ZM282.45 -1646.47L281.668 -1648.31L280.45 -1647.79V-1646.47H282.45ZM282.45 -1604.62H280.45V-1602.62H282.45V-1604.62ZM390 -1517.77V-1515.77H392V-1517.77H390ZM30 -1517.77H28V-1515.77H30V-1517.77ZM66.9 -1733.32L65.4858 -1734.73H65.4858L66.9 -1733.32ZM208.65 -1758.97L209.49 -1760.78L209.478 -1760.79L208.65 -1758.97ZM117.3 -1605.07H115.3V-1603.07H117.3V-1605.07ZM195.6 -1605.07V-1603.07H197.6V-1605.07H195.6ZM184.35 -1671.67L182.936 -1670.25L184.35 -1671.67ZM129 -1671.67L130.386 -1670.22L130.414 -1670.25L130.442 -1670.28L129 -1671.67ZM251.284 -1726.08L390.784 -1785.48L389.216 -1789.16L249.716 -1729.76L251.284 -1726.08ZM388 -1787.32V-1707.67H392V-1787.32H388ZM388 -1707.67C388 -1703.22 386.893 -1699.23 384.697 -1695.66L388.103 -1693.57C390.707 -1697.8 392 -1702.51 392 -1707.67H388ZM384.756 -1695.75C382.284 -1692.18 379.001 -1689.58 374.857 -1687.92L376.343 -1684.21C381.199 -1686.15 385.116 -1689.25 388.044 -1693.48L384.756 -1695.75ZM374.818 -1687.91L281.668 -1648.31L283.232 -1644.62L376.382 -1684.23L374.818 -1687.91ZM280.45 -1646.47C280.45 -1646.46 280.45 -1646.46 280.45 -1646.46C280.45 -1646.46 280.45 -1646.46 280.45 -1646.46C280.45 -1646.46 280.45 -1646.46 280.45 -1646.46C280.45 -1646.45 280.45 -1646.45 280.45 -1646.45C280.45 -1646.45 280.45 -1646.45 280.45 -1646.45C280.45 -1646.45 280.45 -1646.45 280.45 -1646.44C280.45 -1646.44 280.45 -1646.44 280.45 -1646.44C280.45 -1646.44 280.45 -1646.44 280.45 -1646.44C280.45 -1646.44 280.45 -1646.43 280.45 -1646.43C280.45 -1646.43 280.45 -1646.43 280.45 -1646.43C280.45 -1646.43 280.45 -1646.43 280.45 -1646.43C280.45 -1646.43 280.45 -1646.42 280.45 -1646.42C280.45 -1646.42 280.45 -1646.42 280.45 -1646.42C280.45 -1646.42 280.45 -1646.42 280.45 -1646.42C280.45 -1646.41 280.45 -1646.41 280.45 -1646.41C280.45 -1646.41 280.45 -1646.41 280.45 -1646.41C280.45 -1646.41 280.45 -1646.41 280.45 -1646.4C280.45 -1646.4 280.45 -1646.4 280.45 -1646.4C280.45 -1646.4 280.45 -1646.4 280.45 -1646.4C280.45 -1646.4 280.45 -1646.4 280.45 -1646.39C280.45 -1646.39 280.45 -1646.39 280.45 -1646.39C280.45 -1646.39 280.45 -1646.39 280.45 -1646.39C280.45 -1646.39 280.45 -1646.38 280.45 -1646.38C280.45 -1646.38 280.45 -1646.38 280.45 -1646.38C280.45 -1646.38 280.45 -1646.38 280.45 -1646.38C280.45 -1646.37 280.45 -1646.37 280.45 -1646.37C280.45 -1646.37 280.45 -1646.37 280.45 -1646.37C280.45 -1646.37 280.45 -1646.37 280.45 -1646.36C280.45 -1646.36 280.45 -1646.36 280.45 -1646.36C280.45 -1646.36 280.45 -1646.36 280.45 -1646.36C280.45 -1646.36 280.45 -1646.35 280.45 -1646.35C280.45 -1646.35 280.45 -1646.35 280.45 -1646.35C280.45 -1646.35 280.45 -1646.35 280.45 -1646.35C280.45 -1646.34 280.45 -1646.34 280.45 -1646.34C280.45 -1646.34 280.45 -1646.34 280.45 -1646.34C280.45 -1646.34 280.45 -1646.34 280.45 -1646.33C280.45 -1646.33 280.45 -1646.33 280.45 -1646.33C280.45 -1646.33 280.45 -1646.33 280.45 -1646.33C280.45 -1646.33 280.45 -1646.32 280.45 -1646.32C280.45 -1646.32 280.45 -1646.32 280.45 -1646.32C280.45 -1646.32 280.45 -1646.32 280.45 -1646.32C280.45 -1646.31 280.45 -1646.31 280.45 -1646.31C280.45 -1646.31 280.45 -1646.31 280.45 -1646.31C280.45 -1646.31 280.45 -1646.31 280.45 -1646.3C280.45 -1646.3 280.45 -1646.3 280.45 -1646.3C280.45 -1646.3 280.45 -1646.3 280.45 -1646.3C280.45 -1646.3 280.45 -1646.29 280.45 -1646.29C280.45 -1646.29 280.45 -1646.29 280.45 -1646.29C280.45 -1646.29 280.45 -1646.29 280.45 -1646.29C280.45 -1646.28 280.45 -1646.28 280.45 -1646.28C280.45 -1646.28 280.45 -1646.28 280.45 -1646.28C280.45 -1646.28 280.45 -1646.27 280.45 -1646.27C280.45 -1646.27 280.45 -1646.27 280.45 -1646.27C280.45 -1646.27 280.45 -1646.27 280.45 -1646.27C280.45 -1646.26 280.45 -1646.26 280.45 -1646.26C280.45 -1646.26 280.45 -1646.26 280.45 -1646.26C280.45 -1646.26 280.45 -1646.26 280.45 -1646.25C280.45 -1646.25 280.45 -1646.25 280.45 -1646.25C280.45 -1646.25 280.45 -1646.25 280.45 -1646.25C280.45 -1646.24 280.45 -1646.24 280.45 -1646.24C280.45 -1646.24 280.45 -1646.24 280.45 -1646.24C280.45 -1646.24 280.45 -1646.24 280.45 -1646.23C280.45 -1646.23 280.45 -1646.23 280.45 -1646.23C280.45 -1646.23 280.45 -1646.23 280.45 -1646.23C280.45 -1646.23 280.45 -1646.22 280.45 -1646.22C280.45 -1646.22 280.45 -1646.22 280.45 -1646.22C280.45 -1646.22 280.45 -1646.22 280.45 -1646.21C280.45 -1646.21 280.45 -1646.21 280.45 -1646.21C280.45 -1646.21 280.45 -1646.21 280.45 -1646.21C280.45 -1646.21 280.45 -1646.2 280.45 -1646.2C280.45 -1646.2 280.45 -1646.2 280.45 -1646.2C280.45 -1646.2 280.45 -1646.2 280.45 -1646.19C280.45 -1646.19 280.45 -1646.19 280.45 -1646.19C280.45 -1646.19 280.45 -1646.19 280.45 -1646.19C280.45 -1646.19 280.45 -1646.18 280.45 -1646.18C280.45 -1646.18 280.45 -1646.18 280.45 -1646.18C280.45 -1646.18 280.45 -1646.18 280.45 -1646.17C280.45 -1646.17 280.45 -1646.17 280.45 -1646.17C280.45 -1646.17 280.45 -1646.17 280.45 -1646.17C280.45 -1646.17 280.45 -1646.16 280.45 -1646.16C280.45 -1646.16 280.45 -1646.16 280.45 -1646.16C280.45 -1646.16 280.45 -1646.16 280.45 -1646.15C280.45 -1646.15 280.45 -1646.15 280.45 -1646.15C280.45 -1646.15 280.45 -1646.15 280.45 -1646.15C280.45 -1646.14 280.45 -1646.14 280.45 -1646.14C280.45 -1646.14 280.45 -1646.14 280.45 -1646.14C280.45 -1646.14 280.45 -1646.14 280.45 -1646.13C280.45 -1646.13 280.45 -1646.13 280.45 -1646.13C280.45 -1646.13 280.45 -1646.13 280.45 -1646.13C280.45 -1646.12 280.45 -1646.12 280.45 -1646.12C280.45 -1646.12 280.45 -1646.12 280.45 -1646.12C280.45 -1646.12 280.45 -1646.11 280.45 -1646.11C280.45 -1646.11 280.45 -1646.11 280.45 -1646.11C280.45 -1646.11 280.45 -1646.11 280.45 -1646.1C280.45 -1646.1 280.45 -1646.1 280.45 -1646.1C280.45 -1646.1 280.45 -1646.1 280.45 -1646.1C280.45 -1646.1 280.45 -1646.09 280.45 -1646.09C280.45 -1646.09 280.45 -1646.09 280.45 -1646.09C280.45 -1646.09 280.45 -1646.09 280.45 -1646.08C280.45 -1646.08 280.45 -1646.08 280.45 -1646.08C280.45 -1646.08 280.45 -1646.08 280.45 -1646.08C280.45 -1646.07 280.45 -1646.07 280.45 -1646.07C280.45 -1646.07 280.45 -1646.07 280.45 -1646.07C280.45 -1646.07 280.45 -1646.06 280.45 -1646.06C280.45 -1646.06 280.45 -1646.06 280.45 -1646.06C280.45 -1646.06 280.45 -1646.06 280.45 -1646.05C280.45 -1646.05 280.45 -1646.05 280.45 -1646.05C280.45 -1646.05 280.45 -1646.05 280.45 -1646.05C280.45 -1646.04 280.45 -1646.04 280.45 -1646.04C280.45 -1646.04 280.45 -1646.04 280.45 -1646.04C280.45 -1646.04 280.45 -1646.03 280.45 -1646.03C280.45 -1646.03 280.45 -1646.03 280.45 -1646.03C280.45 -1646.03 280.45 -1646.03 280.45 -1646.02C280.45 -1646.02 280.45 -1646.02 280.45 -1646.02C280.45 -1646.02 280.45 -1646.02 280.45 -1646.02C280.45 -1646.01 280.45 -1646.01 280.45 -1646.01C280.45 -1646.01 280.45 -1646.01 280.45 -1646.01C280.45 -1646.01 280.45 -1646 280.45 -1646C280.45 -1646 280.45 -1646 280.45 -1646C280.45 -1646 280.45 -1646 280.45 -1645.99C280.45 -1645.99 280.45 -1645.99 280.45 -1645.99C280.45 -1645.99 280.45 -1645.99 280.45 -1645.99C280.45 -1645.98 280.45 -1645.98 280.45 -1645.98C280.45 -1645.98 280.45 -1645.98 280.45 -1645.98C280.45 -1645.98 280.45 -1645.97 280.45 -1645.97C280.45 -1645.97 280.45 -1645.97 280.45 -1645.97C280.45 -1645.97 280.45 -1645.97 280.45 -1645.96C280.45 -1645.96 280.45 -1645.96 280.45 -1645.96C280.45 -1645.96 280.45 -1645.96 280.45 -1645.96C280.45 -1645.95 280.45 -1645.95 280.45 -1645.95C280.45 -1645.95 280.45 -1645.95 280.45 -1645.95C280.45 -1645.94 280.45 -1645.94 280.45 -1645.94C280.45 -1645.94 280.45 -1645.94 280.45 -1645.94C280.45 -1645.94 280.45 -1645.93 280.45 -1645.93C280.45 -1645.93 280.45 -1645.93 280.45 -1645.93C280.45 -1645.93 280.45 -1645.93 280.45 -1645.92C280.45 -1645.92 280.45 -1645.92 280.45 -1645.92C280.45 -1645.92 280.45 -1645.92 280.45 -1645.92C280.45 -1645.91 280.45 -1645.91 280.45 -1645.91C280.45 -1645.91 280.45 -1645.91 280.45 -1645.91C280.45 -1645.9 280.45 -1645.9 280.45 -1645.9C280.45 -1645.9 280.45 -1645.9 280.45 -1645.9C280.45 -1645.9 280.45 -1645.89 280.45 -1645.89C280.45 -1645.89 280.45 -1645.89 280.45 -1645.89C280.45 -1645.89 280.45 -1645.89 280.45 -1645.88C280.45 -1645.88 280.45 -1645.88 280.45 -1645.88C280.45 -1645.88 280.45 -1645.88 280.45 -1645.87C280.45 -1645.87 280.45 -1645.87 280.45 -1645.87C280.45 -1645.87 280.45 -1645.87 280.45 -1645.87C280.45 -1645.86 280.45 -1645.86 280.45 -1645.86C280.45 -1645.86 280.45 -1645.86 280.45 -1645.86C280.45 -1645.85 280.45 -1645.85 280.45 -1645.85C280.45 -1645.85 280.45 -1645.85 280.45 -1645.85C280.45 -1645.85 280.45 -1645.84 280.45 -1645.84C280.45 -1645.84 280.45 -1645.84 280.45 -1645.84C280.45 -1645.84 280.45 -1645.84 280.45 -1645.83C280.45 -1645.83 280.45 -1645.83 280.45 -1645.83C280.45 -1645.83 280.45 -1645.83 280.45 -1645.82C280.45 -1645.82 280.45 -1645.82 280.45 -1645.82C280.45 -1645.82 280.45 -1645.82 280.45 -1645.82C280.45 -1645.81 280.45 -1645.81 280.45 -1645.81C280.45 -1645.81 280.45 -1645.81 280.45 -1645.81C280.45 -1645.8 280.45 -1645.8 280.45 -1645.8C280.45 -1645.8 280.45 -1645.8 280.45 -1645.8C280.45 -1645.8 280.45 -1645.79 280.45 -1645.79C280.45 -1645.79 280.45 -1645.79 280.45 -1645.79C280.45 -1645.79 280.45 -1645.78 280.45 -1645.78C280.45 -1645.78 280.45 -1645.78 280.45 -1645.78C280.45 -1645.78 280.45 -1645.77 280.45 -1645.77C280.45 -1645.77 280.45 -1645.77 280.45 -1645.77C280.45 -1645.77 280.45 -1645.77 280.45 -1645.76C280.45 -1645.76 280.45 -1645.76 280.45 -1645.76C280.45 -1645.76 280.45 -1645.76 280.45 -1645.75C280.45 -1645.75 280.45 -1645.75 280.45 -1645.75C280.45 -1645.75 280.45 -1645.75 280.45 -1645.75C280.45 -1645.74 280.45 -1645.74 280.45 -1645.74C280.45 -1645.74 280.45 -1645.74 280.45 -1645.74C280.45 -1645.73 280.45 -1645.73 280.45 -1645.73C280.45 -1645.73 280.45 -1645.73 280.45 -1645.73C280.45 -1645.72 280.45 -1645.72 280.45 -1645.72C280.45 -1645.72 280.45 -1645.72 280.45 -1645.72C280.45 -1645.72 280.45 -1645.71 280.45 -1645.71C280.45 -1645.71 280.45 -1645.71 280.45 -1645.71C280.45 -1645.71 280.45 -1645.7 280.45 -1645.7C280.45 -1645.7 280.45 -1645.7 280.45 -1645.7C280.45 -1645.7 280.45 -1645.69 280.45 -1645.69C280.45 -1645.69 280.45 -1645.69 280.45 -1645.69C280.45 -1645.69 280.45 -1645.69 280.45 -1645.68C280.45 -1645.68 280.45 -1645.68 280.45 -1645.68C280.45 -1645.68 280.45 -1645.68 280.45 -1645.67C280.45 -1645.67 280.45 -1645.67 280.45 -1645.67C280.45 -1645.67 280.45 -1645.67 280.45 -1645.66C280.45 -1645.66 280.45 -1645.66 280.45 -1645.66C280.45 -1645.66 280.45 -1645.66 280.45 -1645.65C280.45 -1645.65 280.45 -1645.65 280.45 -1645.65C280.45 -1645.65 280.45 -1645.65 280.45 -1645.64C280.45 -1645.64 280.45 -1645.64 280.45 -1645.64C280.45 -1645.64 280.45 -1645.64 280.45 -1645.64C280.45 -1645.63 280.45 -1645.63 280.45 -1645.63C280.45 -1645.63 280.45 -1645.63 280.45 -1645.63C280.45 -1645.62 280.45 -1645.62 280.45 -1645.62C280.45 -1645.62 280.45 -1645.62 280.45 -1645.62C280.45 -1645.61 280.45 -1645.61 280.45 -1645.61C280.45 -1645.61 280.45 -1645.61 280.45 -1645.61C280.45 -1645.6 280.45 -1645.6 280.45 -1645.6C280.45 -1645.6 280.45 -1645.6 280.45 -1645.6C280.45 -1645.59 280.45 -1645.59 280.45 -1645.59C280.45 -1645.59 280.45 -1645.59 280.45 -1645.59C280.45 -1645.58 280.45 -1645.58 280.45 -1645.58C280.45 -1645.58 280.45 -1645.58 280.45 -1645.58C280.45 -1645.57 280.45 -1645.57 280.45 -1645.57C280.45 -1645.57 280.45 -1645.57 280.45 -1645.57C280.45 -1645.56 280.45 -1645.56 280.45 -1645.56C280.45 -1645.56 280.45 -1645.56 280.45 -1645.56C280.45 -1645.55 280.45 -1645.55 280.45 -1645.55C280.45 -1645.55 280.45 -1645.55 280.45 -1645.55C280.45 -1645.54 280.45 -1645.54 280.45 -1645.54C280.45 -1645.54 280.45 -1645.54 280.45 -1645.54C280.45 -1645.53 280.45 -1645.53 280.45 -1645.53C280.45 -1645.53 280.45 -1645.53 280.45 -1645.53C280.45 -1645.52 280.45 -1645.52 280.45 -1645.52C280.45 -1645.52 280.45 -1645.52 280.45 -1645.52C280.45 -1645.51 280.45 -1645.51 280.45 -1645.51C280.45 -1645.51 280.45 -1645.51 280.45 -1645.51C280.45 -1645.5 280.45 -1645.5 280.45 -1645.5C280.45 -1645.5 280.45 -1645.5 280.45 -1645.5C280.45 -1645.49 280.45 -1645.49 280.45 -1645.49C280.45 -1645.49 280.45 -1645.49 280.45 -1645.49C280.45 -1645.48 280.45 -1645.48 280.45 -1645.48C280.45 -1645.48 280.45 -1645.48 280.45 -1645.48C280.45 -1645.47 280.45 -1645.47 280.45 -1645.47C280.45 -1645.47 280.45 -1645.47 280.45 -1645.47C280.45 -1645.46 280.45 -1645.46 280.45 -1645.46C280.45 -1645.46 280.45 -1645.46 280.45 -1645.46C280.45 -1645.45 280.45 -1645.45 280.45 -1645.45C280.45 -1645.45 280.45 -1645.45 280.45 -1645.44C280.45 -1645.44 280.45 -1645.44 280.45 -1645.44C280.45 -1645.44 280.45 -1645.44 280.45 -1645.43C280.45 -1645.43 280.45 -1645.43 280.45 -1645.43C280.45 -1645.43 280.45 -1645.43 280.45 -1645.42C280.45 -1645.42 280.45 -1645.42 280.45 -1645.42C280.45 -1645.42 280.45 -1645.42 280.45 -1645.41C280.45 -1645.41 280.45 -1645.41 280.45 -1645.41C280.45 -1645.41 280.45 -1645.41 280.45 -1645.4C280.45 -1645.4 280.45 -1645.4 280.45 -1645.4C280.45 -1645.4 280.45 -1645.39 280.45 -1645.39C280.45 -1645.39 280.45 -1645.39 280.45 -1645.39C280.45 -1645.39 280.45 -1645.38 280.45 -1645.38C280.45 -1645.38 280.45 -1645.38 280.45 -1645.38C280.45 -1645.38 280.45 -1645.37 280.45 -1645.37C280.45 -1645.37 280.45 -1645.37 280.45 -1645.37C280.45 -1645.37 280.45 -1645.36 280.45 -1645.36C280.45 -1645.36 280.45 -1645.36 280.45 -1645.36C280.45 -1645.35 280.45 -1645.35 280.45 -1645.35C280.45 -1645.35 280.45 -1645.35 280.45 -1645.35C280.45 -1645.34 280.45 -1645.34 280.45 -1645.34C280.45 -1645.34 280.45 -1645.34 280.45 -1645.34C280.45 -1645.33 280.45 -1645.33 280.45 -1645.33C280.45 -1645.33 280.45 -1645.33 280.45 -1645.32C280.45 -1645.32 280.45 -1645.32 280.45 -1645.32C280.45 -1645.32 280.45 -1645.32 280.45 -1645.31C280.45 -1645.31 280.45 -1645.31 280.45 -1645.31C280.45 -1645.31 280.45 -1645.31 280.45 -1645.3C280.45 -1645.3 280.45 -1645.3 280.45 -1645.3C280.45 -1645.3 280.45 -1645.29 280.45 -1645.29C280.45 -1645.29 280.45 -1645.29 280.45 -1645.29C280.45 -1645.29 280.45 -1645.28 280.45 -1645.28C280.45 -1645.28 280.45 -1645.28 280.45 -1645.28C280.45 -1645.28 280.45 -1645.27 280.45 -1645.27C280.45 -1645.27 280.45 -1645.27 280.45 -1645.27C280.45 -1645.26 280.45 -1645.26 280.45 -1645.26C280.45 -1645.26 280.45 -1645.26 280.45 -1645.26C280.45 -1645.25 280.45 -1645.25 280.45 -1645.25C280.45 -1645.25 280.45 -1645.25 280.45 -1645.24C280.45 -1645.24 280.45 -1645.24 280.45 -1645.24C280.45 -1645.24 280.45 -1645.24 280.45 -1645.23C280.45 -1645.23 280.45 -1645.23 280.45 -1645.23C280.45 -1645.23 280.45 -1645.22 280.45 -1645.22C280.45 -1645.22 280.45 -1645.22 280.45 -1645.22C280.45 -1645.22 280.45 -1645.21 280.45 -1645.21C280.45 -1645.21 280.45 -1645.21 280.45 -1645.21C280.45 -1645.2 280.45 -1645.2 280.45 -1645.2C280.45 -1645.2 280.45 -1645.2 280.45 -1645.2C280.45 -1645.19 280.45 -1645.19 280.45 -1645.19C280.45 -1645.19 280.45 -1645.19 280.45 -1645.18C280.45 -1645.18 280.45 -1645.18 280.45 -1645.18C280.45 -1645.18 280.45 -1645.18 280.45 -1645.17C280.45 -1645.17 280.45 -1645.17 280.45 -1645.17C280.45 -1645.17 280.45 -1645.16 280.45 -1645.16C280.45 -1645.16 280.45 -1645.16 280.45 -1645.16C280.45 -1645.16 280.45 -1645.15 280.45 -1645.15C280.45 -1645.15 280.45 -1645.15 280.45 -1645.15C280.45 -1645.14 280.45 -1645.14 280.45 -1645.14C280.45 -1645.14 280.45 -1645.14 280.45 -1645.14C280.45 -1645.13 280.45 -1645.13 280.45 -1645.13C280.45 -1645.13 280.45 -1645.13 280.45 -1645.12C280.45 -1645.12 280.45 -1645.12 280.45 -1645.12C280.45 -1645.12 280.45 -1645.11 280.45 -1645.11C280.45 -1645.11 280.45 -1645.11 280.45 -1645.11C280.45 -1645.11 280.45 -1645.1 280.45 -1645.1C280.45 -1645.1 280.45 -1645.1 280.45 -1645.1C280.45 -1645.09 280.45 -1645.09 280.45 -1645.09C280.45 -1645.09 280.45 -1645.09 280.45 -1645.09C280.45 -1645.08 280.45 -1645.08 280.45 -1645.08C280.45 -1645.08 280.45 -1645.08 280.45 -1645.07C280.45 -1645.07 280.45 -1645.07 280.45 -1645.07C280.45 -1645.07 280.45 -1645.06 280.45 -1645.06C280.45 -1645.06 280.45 -1645.06 280.45 -1645.06C280.45 -1645.06 280.45 -1645.05 280.45 -1645.05C280.45 -1645.05 280.45 -1645.05 280.45 -1645.05C280.45 -1645.04 280.45 -1645.04 280.45 -1645.04C280.45 -1645.04 280.45 -1645.04 280.45 -1645.03C280.45 -1645.03 280.45 -1645.03 280.45 -1645.03C280.45 -1645.03 280.45 -1645.03 280.45 -1645.02C280.45 -1645.02 280.45 -1645.02 280.45 -1645.02C280.45 -1645.02 280.45 -1645.01 280.45 -1645.01C280.45 -1645.01 280.45 -1645.01 280.45 -1645.01C280.45 -1645 280.45 -1645 280.45 -1645C280.45 -1645 280.45 -1645 280.45 -1644.99C280.45 -1644.99 280.45 -1644.99 280.45 -1644.99C280.45 -1644.99 280.45 -1644.99 280.45 -1644.98C280.45 -1644.98 280.45 -1644.98 280.45 -1644.98C280.45 -1644.98 280.45 -1644.97 280.45 -1644.97C280.45 -1644.97 280.45 -1644.97 280.45 -1644.97C280.45 -1644.96 280.45 -1644.96 280.45 -1644.96C280.45 -1644.96 280.45 -1644.96 280.45 -1644.95C280.45 -1644.95 280.45 -1644.95 280.45 -1644.95C280.45 -1644.95 280.45 -1644.95 280.45 -1644.94C280.45 -1644.94 280.45 -1644.94 280.45 -1644.94C280.45 -1644.94 280.45 -1644.93 280.45 -1644.93C280.45 -1644.93 280.45 -1644.93 280.45 -1644.93C280.45 -1644.92 280.45 -1644.92 280.45 -1644.92C280.45 -1644.92 280.45 -1644.92 280.45 -1644.91C280.45 -1644.91 280.45 -1644.91 280.45 -1644.91C280.45 -1644.91 280.45 -1644.9 280.45 -1644.9C280.45 -1644.9 280.45 -1644.9 280.45 -1644.9C280.45 -1644.89 280.45 -1644.89 280.45 -1644.89C280.45 -1644.89 280.45 -1644.89 280.45 -1644.89C280.45 -1644.88 280.45 -1644.88 280.45 -1644.88C280.45 -1644.88 280.45 -1644.88 280.45 -1644.87C280.45 -1644.87 280.45 -1644.87 280.45 -1644.87C280.45 -1644.87 280.45 -1644.86 280.45 -1644.86C280.45 -1644.86 280.45 -1644.86 280.45 -1644.86C280.45 -1644.85 280.45 -1644.85 280.45 -1644.85C280.45 -1644.85 280.45 -1644.85 280.45 -1644.84C280.45 -1644.84 280.45 -1644.84 280.45 -1644.84C280.45 -1644.84 280.45 -1644.83 280.45 -1644.83C280.45 -1644.83 280.45 -1644.83 280.45 -1644.83C280.45 -1644.82 280.45 -1644.82 280.45 -1644.82C280.45 -1644.82 280.45 -1644.82 280.45 -1644.81C280.45 -1644.81 280.45 -1644.81 280.45 -1644.81C280.45 -1644.81 280.45 -1644.8 280.45 -1644.8C280.45 -1644.8 280.45 -1644.8 280.45 -1644.8C280.45 -1644.79 280.45 -1644.79 280.45 -1644.79C280.45 -1644.79 280.45 -1644.79 280.45 -1644.78C280.45 -1644.78 280.45 -1644.78 280.45 -1644.78C280.45 -1644.78 280.45 -1644.77 280.45 -1644.77C280.45 -1644.77 280.45 -1644.77 280.45 -1644.77C280.45 -1644.77 280.45 -1644.76 280.45 -1644.76C280.45 -1644.76 280.45 -1644.76 280.45 -1644.76C280.45 -1644.75 280.45 -1644.75 280.45 -1644.75C280.45 -1644.75 280.45 -1644.75 280.45 -1644.74C280.45 -1644.74 280.45 -1644.74 280.45 -1644.74C280.45 -1644.74 280.45 -1644.73 280.45 -1644.73C280.45 -1644.73 280.45 -1644.73 280.45 -1644.73C280.45 -1644.72 280.45 -1644.72 280.45 -1644.72C280.45 -1644.72 280.45 -1644.72 280.45 -1644.71C280.45 -1644.71 280.45 -1644.71 280.45 -1644.71C280.45 -1644.7 280.45 -1644.7 280.45 -1644.7C280.45 -1644.7 280.45 -1644.7 280.45 -1644.69C280.45 -1644.69 280.45 -1644.69 280.45 -1644.69C280.45 -1644.69 280.45 -1644.68 280.45 -1644.68C280.45 -1644.68 280.45 -1644.68 280.45 -1644.68C280.45 -1644.67 280.45 -1644.67 280.45 -1644.67C280.45 -1644.67 280.45 -1644.67 280.45 -1644.66C280.45 -1644.66 280.45 -1644.66 280.45 -1644.66C280.45 -1644.66 280.45 -1644.65 280.45 -1644.65C280.45 -1644.65 280.45 -1644.65 280.45 -1644.65C280.45 -1644.64 280.45 -1644.64 280.45 -1644.64C280.45 -1644.64 280.45 -1644.64 280.45 -1644.63C280.45 -1644.63 280.45 -1644.63 280.45 -1644.63C280.45 -1644.63 280.45 -1644.62 280.45 -1644.62C280.45 -1644.62 280.45 -1644.62 280.45 -1644.62C280.45 -1644.61 280.45 -1644.61 280.45 -1644.61C280.45 -1644.61 280.45 -1644.61 280.45 -1644.6C280.45 -1644.6 280.45 -1644.6 280.45 -1644.6C280.45 -1644.59 280.45 -1644.59 280.45 -1644.59C280.45 -1644.59 280.45 -1644.59 280.45 -1644.58C280.45 -1644.58 280.45 -1644.58 280.45 -1644.58C280.45 -1644.58 280.45 -1644.57 280.45 -1644.57C280.45 -1644.57 280.45 -1644.57 280.45 -1644.57C280.45 -1644.56 280.45 -1644.56 280.45 -1644.56C280.45 -1644.56 280.45 -1644.56 280.45 -1644.55C280.45 -1644.55 280.45 -1644.55 280.45 -1644.55C280.45 -1644.55 280.45 -1644.54 280.45 -1644.54C280.45 -1644.54 280.45 -1644.54 280.45 -1644.54C280.45 -1644.53 280.45 -1644.53 280.45 -1644.53C280.45 -1644.53 280.45 -1644.52 280.45 -1644.52C280.45 -1644.52 280.45 -1644.52 280.45 -1644.52C280.45 -1644.51 280.45 -1644.51 280.45 -1644.51C280.45 -1644.51 280.45 -1644.51 280.45 -1644.5C280.45 -1644.5 280.45 -1644.5 280.45 -1644.5C280.45 -1644.5 280.45 -1644.49 280.45 -1644.49C280.45 -1644.49 280.45 -1644.49 280.45 -1644.48C280.45 -1644.48 280.45 -1644.48 280.45 -1644.48C280.45 -1644.48 280.45 -1644.47 280.45 -1644.47C280.45 -1644.47 280.45 -1644.47 280.45 -1644.47C280.45 -1644.46 280.45 -1644.46 280.45 -1644.46C280.45 -1644.46 280.45 -1644.46 280.45 -1644.45C280.45 -1644.45 280.45 -1644.45 280.45 -1644.45C280.45 -1644.45 280.45 -1644.44 280.45 -1644.44C280.45 -1644.44 280.45 -1644.44 280.45 -1644.43C280.45 -1644.43 280.45 -1644.43 280.45 -1644.43C280.45 -1644.43 280.45 -1644.42 280.45 -1644.42C280.45 -1644.42 280.45 -1644.42 280.45 -1644.42C280.45 -1644.41 280.45 -1644.41 280.45 -1644.41C280.45 -1644.41 280.45 -1644.4 280.45 -1644.4C280.45 -1644.4 280.45 -1644.4 280.45 -1644.4C280.45 -1644.39 280.45 -1644.39 280.45 -1644.39C280.45 -1644.39 280.45 -1644.39 280.45 -1644.38C280.45 -1644.38 280.45 -1644.38 280.45 -1644.38C280.45 -1644.38 280.45 -1644.37 280.45 -1644.37C280.45 -1644.37 280.45 -1644.37 280.45 -1644.36C280.45 -1644.36 280.45 -1644.36 280.45 -1644.36C280.45 -1644.36 280.45 -1644.35 280.45 -1644.35C280.45 -1644.35 280.45 -1644.35 280.45 -1644.34C280.45 -1644.34 280.45 -1644.34 280.45 -1644.34C280.45 -1644.34 280.45 -1644.33 280.45 -1644.33C280.45 -1644.33 280.45 -1644.33 280.45 -1644.33C280.45 -1644.32 280.45 -1644.32 280.45 -1644.32C280.45 -1644.32 280.45 -1644.31 280.45 -1644.31C280.45 -1644.31 280.45 -1644.31 280.45 -1644.31C280.45 -1644.3 280.45 -1644.3 280.45 -1644.3C280.45 -1644.3 280.45 -1644.3 280.45 -1644.29C280.45 -1644.29 280.45 -1644.29 280.45 -1644.29C280.45 -1644.28 280.45 -1644.28 280.45 -1644.28C280.45 -1644.28 280.45 -1644.28 280.45 -1644.27C280.45 -1644.27 280.45 -1644.27 280.45 -1644.27C280.45 -1644.26 280.45 -1644.26 280.45 -1644.26C280.45 -1644.26 280.45 -1644.26 280.45 -1644.25C280.45 -1644.25 280.45 -1644.25 280.45 -1644.25C280.45 -1644.25 280.45 -1644.24 280.45 -1644.24C280.45 -1644.24 280.45 -1644.24 280.45 -1644.23C280.45 -1644.23 280.45 -1644.23 280.45 -1644.23C280.45 -1644.23 280.45 -1644.22 280.45 -1644.22C280.45 -1644.22 280.45 -1644.22 280.45 -1644.21C280.45 -1644.21 280.45 -1644.21 280.45 -1644.21C280.45 -1644.21 280.45 -1644.2 280.45 -1644.2C280.45 -1644.2 280.45 -1644.2 280.45 -1644.2C280.45 -1644.19 280.45 -1644.19 280.45 -1644.19C280.45 -1644.19 280.45 -1644.18 280.45 -1644.18C280.45 -1644.18 280.45 -1644.18 280.45 -1644.18C280.45 -1644.17 280.45 -1644.17 280.45 -1644.17C280.45 -1644.17 280.45 -1644.16 280.45 -1644.16C280.45 -1644.16 280.45 -1644.16 280.45 -1644.16C280.45 -1644.15 280.45 -1644.15 280.45 -1644.15C280.45 -1644.15 280.45 -1644.14 280.45 -1644.14C280.45 -1644.14 280.45 -1644.14 280.45 -1644.14C280.45 -1644.13 280.45 -1644.13 280.45 -1644.13C280.45 -1644.13 280.45 -1644.12 280.45 -1644.12C280.45 -1644.12 280.45 -1644.12 280.45 -1644.12C280.45 -1644.11 280.45 -1644.11 280.45 -1644.11C280.45 -1644.11 280.45 -1644.1 280.45 -1644.1C280.45 -1644.1 280.45 -1644.1 280.45 -1644.1C280.45 -1644.09 280.45 -1644.09 280.45 -1644.09C280.45 -1644.09 280.45 -1644.08 280.45 -1644.08C280.45 -1644.08 280.45 -1644.08 280.45 -1644.08C280.45 -1644.07 280.45 -1644.07 280.45 -1644.07C280.45 -1644.07 280.45 -1644.06 280.45 -1644.06C280.45 -1644.06 280.45 -1644.06 280.45 -1644.05C280.45 -1644.05 280.45 -1644.05 280.45 -1644.05C280.45 -1644.05 280.45 -1644.04 280.45 -1644.04C280.45 -1644.04 280.45 -1644.04 280.45 -1644.03C280.45 -1644.03 280.45 -1644.03 280.45 -1644.03C280.45 -1644.03 280.45 -1644.02 280.45 -1644.02C280.45 -1644.02 280.45 -1644.02 280.45 -1644.01C280.45 -1644.01 280.45 -1644.01 280.45 -1644.01C280.45 -1644.01 280.45 -1644 280.45 -1644C280.45 -1644 280.45 -1644 280.45 -1643.99C280.45 -1643.99 280.45 -1643.99 280.45 -1643.99C280.45 -1643.98 280.45 -1643.98 280.45 -1643.98C280.45 -1643.98 280.45 -1643.98 280.45 -1643.97C280.45 -1643.97 280.45 -1643.97 280.45 -1643.97C280.45 -1643.96 280.45 -1643.96 280.45 -1643.96C280.45 -1643.96 280.45 -1643.96 280.45 -1643.95C280.45 -1643.95 280.45 -1643.95 280.45 -1643.95C280.45 -1643.94 280.45 -1643.94 280.45 -1643.94C280.45 -1643.94 280.45 -1643.93 280.45 -1643.93C280.45 -1643.93 280.45 -1643.93 280.45 -1643.93C280.45 -1643.92 280.45 -1643.92 280.45 -1643.92C280.45 -1643.92 280.45 -1643.91 280.45 -1643.91C280.45 -1643.91 280.45 -1643.91 280.45 -1643.9C280.45 -1643.9 280.45 -1643.9 280.45 -1643.9C280.45 -1643.9 280.45 -1643.89 280.45 -1643.89C280.45 -1643.89 280.45 -1643.89 280.45 -1643.88C280.45 -1643.88 280.45 -1643.88 280.45 -1643.88C280.45 -1643.88 280.45 -1643.87 280.45 -1643.87C280.45 -1643.87 280.45 -1643.87 280.45 -1643.86C280.45 -1643.86 280.45 -1643.86 280.45 -1643.86C280.45 -1643.85 280.45 -1643.85 280.45 -1643.85C280.45 -1643.85 280.45 -1643.84 280.45 -1643.84C280.45 -1643.84 280.45 -1643.84 280.45 -1643.84C280.45 -1643.83 280.45 -1643.83 280.45 -1643.83C280.45 -1643.83 280.45 -1643.82 280.45 -1643.82C280.45 -1643.82 280.45 -1643.82 280.45 -1643.81C280.45 -1643.81 280.45 -1643.81 280.45 -1643.81C280.45 -1643.81 280.45 -1643.8 280.45 -1643.8C280.45 -1643.8 280.45 -1643.8 280.45 -1643.79C280.45 -1643.79 280.45 -1643.79 280.45 -1643.79C280.45 -1643.78 280.45 -1643.78 280.45 -1643.78C280.45 -1643.78 280.45 -1643.77 280.45 -1643.77C280.45 -1643.77 280.45 -1643.77 280.45 -1643.77H284.45C284.45 -1643.77 284.45 -1643.77 284.45 -1643.77C284.45 -1643.77 284.45 -1643.78 284.45 -1643.78C284.45 -1643.78 284.45 -1643.78 284.45 -1643.79C284.45 -1643.79 284.45 -1643.79 284.45 -1643.79C284.45 -1643.8 284.45 -1643.8 284.45 -1643.8C284.45 -1643.8 284.45 -1643.81 284.45 -1643.81C284.45 -1643.81 284.45 -1643.81 284.45 -1643.81C284.45 -1643.82 284.45 -1643.82 284.45 -1643.82C284.45 -1643.82 284.45 -1643.83 284.45 -1643.83C284.45 -1643.83 284.45 -1643.83 284.45 -1643.84C284.45 -1643.84 284.45 -1643.84 284.45 -1643.84C284.45 -1643.84 284.45 -1643.85 284.45 -1643.85C284.45 -1643.85 284.45 -1643.85 284.45 -1643.86C284.45 -1643.86 284.45 -1643.86 284.45 -1643.86C284.45 -1643.87 284.45 -1643.87 284.45 -1643.87C284.45 -1643.87 284.45 -1643.88 284.45 -1643.88C284.45 -1643.88 284.45 -1643.88 284.45 -1643.88C284.45 -1643.89 284.45 -1643.89 284.45 -1643.89C284.45 -1643.89 284.45 -1643.9 284.45 -1643.9C284.45 -1643.9 284.45 -1643.9 284.45 -1643.9C284.45 -1643.91 284.45 -1643.91 284.45 -1643.91C284.45 -1643.91 284.45 -1643.92 284.45 -1643.92C284.45 -1643.92 284.45 -1643.92 284.45 -1643.93C284.45 -1643.93 284.45 -1643.93 284.45 -1643.93C284.45 -1643.93 284.45 -1643.94 284.45 -1643.94C284.45 -1643.94 284.45 -1643.94 284.45 -1643.95C284.45 -1643.95 284.45 -1643.95 284.45 -1643.95C284.45 -1643.96 284.45 -1643.96 284.45 -1643.96C284.45 -1643.96 284.45 -1643.96 284.45 -1643.97C284.45 -1643.97 284.45 -1643.97 284.45 -1643.97C284.45 -1643.98 284.45 -1643.98 284.45 -1643.98C284.45 -1643.98 284.45 -1643.98 284.45 -1643.99C284.45 -1643.99 284.45 -1643.99 284.45 -1643.99C284.45 -1644 284.45 -1644 284.45 -1644C284.45 -1644 284.45 -1644.01 284.45 -1644.01C284.45 -1644.01 284.45 -1644.01 284.45 -1644.01C284.45 -1644.02 284.45 -1644.02 284.45 -1644.02C284.45 -1644.02 284.45 -1644.03 284.45 -1644.03C284.45 -1644.03 284.45 -1644.03 284.45 -1644.03C284.45 -1644.04 284.45 -1644.04 284.45 -1644.04C284.45 -1644.04 284.45 -1644.05 284.45 -1644.05C284.45 -1644.05 284.45 -1644.05 284.45 -1644.05C284.45 -1644.06 284.45 -1644.06 284.45 -1644.06C284.45 -1644.06 284.45 -1644.07 284.45 -1644.07C284.45 -1644.07 284.45 -1644.07 284.45 -1644.08C284.45 -1644.08 284.45 -1644.08 284.45 -1644.08C284.45 -1644.08 284.45 -1644.09 284.45 -1644.09C284.45 -1644.09 284.45 -1644.09 284.45 -1644.1C284.45 -1644.1 284.45 -1644.1 284.45 -1644.1C284.45 -1644.1 284.45 -1644.11 284.45 -1644.11C284.45 -1644.11 284.45 -1644.11 284.45 -1644.12C284.45 -1644.12 284.45 -1644.12 284.45 -1644.12C284.45 -1644.12 284.45 -1644.13 284.45 -1644.13C284.45 -1644.13 284.45 -1644.13 284.45 -1644.14C284.45 -1644.14 284.45 -1644.14 284.45 -1644.14C284.45 -1644.14 284.45 -1644.15 284.45 -1644.15C284.45 -1644.15 284.45 -1644.15 284.45 -1644.16C284.45 -1644.16 284.45 -1644.16 284.45 -1644.16C284.45 -1644.16 284.45 -1644.17 284.45 -1644.17C284.45 -1644.17 284.45 -1644.17 284.45 -1644.18C284.45 -1644.18 284.45 -1644.18 284.45 -1644.18C284.45 -1644.18 284.45 -1644.19 284.45 -1644.19C284.45 -1644.19 284.45 -1644.19 284.45 -1644.2C284.45 -1644.2 284.45 -1644.2 284.45 -1644.2C284.45 -1644.2 284.45 -1644.21 284.45 -1644.21C284.45 -1644.21 284.45 -1644.21 284.45 -1644.21C284.45 -1644.22 284.45 -1644.22 284.45 -1644.22C284.45 -1644.22 284.45 -1644.23 284.45 -1644.23C284.45 -1644.23 284.45 -1644.23 284.45 -1644.23C284.45 -1644.24 284.45 -1644.24 284.45 -1644.24C284.45 -1644.24 284.45 -1644.25 284.45 -1644.25C284.45 -1644.25 284.45 -1644.25 284.45 -1644.25C284.45 -1644.26 284.45 -1644.26 284.45 -1644.26C284.45 -1644.26 284.45 -1644.26 284.45 -1644.27C284.45 -1644.27 284.45 -1644.27 284.45 -1644.27C284.45 -1644.28 284.45 -1644.28 284.45 -1644.28C284.45 -1644.28 284.45 -1644.28 284.45 -1644.29C284.45 -1644.29 284.45 -1644.29 284.45 -1644.29C284.45 -1644.3 284.45 -1644.3 284.45 -1644.3C284.45 -1644.3 284.45 -1644.3 284.45 -1644.31C284.45 -1644.31 284.45 -1644.31 284.45 -1644.31C284.45 -1644.31 284.45 -1644.32 284.45 -1644.32C284.45 -1644.32 284.45 -1644.32 284.45 -1644.33C284.45 -1644.33 284.45 -1644.33 284.45 -1644.33C284.45 -1644.33 284.45 -1644.34 284.45 -1644.34C284.45 -1644.34 284.45 -1644.34 284.45 -1644.34C284.45 -1644.35 284.45 -1644.35 284.45 -1644.35C284.45 -1644.35 284.45 -1644.36 284.45 -1644.36C284.45 -1644.36 284.45 -1644.36 284.45 -1644.36C284.45 -1644.37 284.45 -1644.37 284.45 -1644.37C284.45 -1644.37 284.45 -1644.38 284.45 -1644.38C284.45 -1644.38 284.45 -1644.38 284.45 -1644.38C284.45 -1644.39 284.45 -1644.39 284.45 -1644.39C284.45 -1644.39 284.45 -1644.39 284.45 -1644.4C284.45 -1644.4 284.45 -1644.4 284.45 -1644.4C284.45 -1644.4 284.45 -1644.41 284.45 -1644.41C284.45 -1644.41 284.45 -1644.41 284.45 -1644.42C284.45 -1644.42 284.45 -1644.42 284.45 -1644.42C284.45 -1644.42 284.45 -1644.43 284.45 -1644.43C284.45 -1644.43 284.45 -1644.43 284.45 -1644.43C284.45 -1644.44 284.45 -1644.44 284.45 -1644.44C284.45 -1644.44 284.45 -1644.45 284.45 -1644.45C284.45 -1644.45 284.45 -1644.45 284.45 -1644.45C284.45 -1644.46 284.45 -1644.46 284.45 -1644.46C284.45 -1644.46 284.45 -1644.46 284.45 -1644.47C284.45 -1644.47 284.45 -1644.47 284.45 -1644.47C284.45 -1644.47 284.45 -1644.48 284.45 -1644.48C284.45 -1644.48 284.45 -1644.48 284.45 -1644.48C284.45 -1644.49 284.45 -1644.49 284.45 -1644.49C284.45 -1644.49 284.45 -1644.5 284.45 -1644.5C284.45 -1644.5 284.45 -1644.5 284.45 -1644.5C284.45 -1644.51 284.45 -1644.51 284.45 -1644.51C284.45 -1644.51 284.45 -1644.51 284.45 -1644.52C284.45 -1644.52 284.45 -1644.52 284.45 -1644.52C284.45 -1644.52 284.45 -1644.53 284.45 -1644.53C284.45 -1644.53 284.45 -1644.53 284.45 -1644.54C284.45 -1644.54 284.45 -1644.54 284.45 -1644.54C284.45 -1644.54 284.45 -1644.55 284.45 -1644.55C284.45 -1644.55 284.45 -1644.55 284.45 -1644.55C284.45 -1644.56 284.45 -1644.56 284.45 -1644.56C284.45 -1644.56 284.45 -1644.56 284.45 -1644.57C284.45 -1644.57 284.45 -1644.57 284.45 -1644.57C284.45 -1644.57 284.45 -1644.58 284.45 -1644.58C284.45 -1644.58 284.45 -1644.58 284.45 -1644.58C284.45 -1644.59 284.45 -1644.59 284.45 -1644.59C284.45 -1644.59 284.45 -1644.59 284.45 -1644.6C284.45 -1644.6 284.45 -1644.6 284.45 -1644.6C284.45 -1644.61 284.45 -1644.61 284.45 -1644.61C284.45 -1644.61 284.45 -1644.61 284.45 -1644.62C284.45 -1644.62 284.45 -1644.62 284.45 -1644.62C284.45 -1644.62 284.45 -1644.63 284.45 -1644.63C284.45 -1644.63 284.45 -1644.63 284.45 -1644.63C284.45 -1644.64 284.45 -1644.64 284.45 -1644.64C284.45 -1644.64 284.45 -1644.64 284.45 -1644.65C284.45 -1644.65 284.45 -1644.65 284.45 -1644.65C284.45 -1644.65 284.45 -1644.66 284.45 -1644.66C284.45 -1644.66 284.45 -1644.66 284.45 -1644.66C284.45 -1644.67 284.45 -1644.67 284.45 -1644.67C284.45 -1644.67 284.45 -1644.67 284.45 -1644.68C284.45 -1644.68 284.45 -1644.68 284.45 -1644.68C284.45 -1644.68 284.45 -1644.69 284.45 -1644.69C284.45 -1644.69 284.45 -1644.69 284.45 -1644.69C284.45 -1644.7 284.45 -1644.7 284.45 -1644.7C284.45 -1644.7 284.45 -1644.7 284.45 -1644.71C284.45 -1644.71 284.45 -1644.71 284.45 -1644.71C284.45 -1644.72 284.45 -1644.72 284.45 -1644.72C284.45 -1644.72 284.45 -1644.72 284.45 -1644.73C284.45 -1644.73 284.45 -1644.73 284.45 -1644.73C284.45 -1644.73 284.45 -1644.74 284.45 -1644.74C284.45 -1644.74 284.45 -1644.74 284.45 -1644.74C284.45 -1644.75 284.45 -1644.75 284.45 -1644.75C284.45 -1644.75 284.45 -1644.75 284.45 -1644.76C284.45 -1644.76 284.45 -1644.76 284.45 -1644.76C284.45 -1644.76 284.45 -1644.77 284.45 -1644.77C284.45 -1644.77 284.45 -1644.77 284.45 -1644.77C284.45 -1644.77 284.45 -1644.78 284.45 -1644.78C284.45 -1644.78 284.45 -1644.78 284.45 -1644.78C284.45 -1644.79 284.45 -1644.79 284.45 -1644.79C284.45 -1644.79 284.45 -1644.79 284.45 -1644.8C284.45 -1644.8 284.45 -1644.8 284.45 -1644.8C284.45 -1644.8 284.45 -1644.81 284.45 -1644.81C284.45 -1644.81 284.45 -1644.81 284.45 -1644.81C284.45 -1644.82 284.45 -1644.82 284.45 -1644.82C284.45 -1644.82 284.45 -1644.82 284.45 -1644.83C284.45 -1644.83 284.45 -1644.83 284.45 -1644.83C284.45 -1644.83 284.45 -1644.84 284.45 -1644.84C284.45 -1644.84 284.45 -1644.84 284.45 -1644.84C284.45 -1644.85 284.45 -1644.85 284.45 -1644.85C284.45 -1644.85 284.45 -1644.85 284.45 -1644.86C284.45 -1644.86 284.45 -1644.86 284.45 -1644.86C284.45 -1644.86 284.45 -1644.87 284.45 -1644.87C284.45 -1644.87 284.45 -1644.87 284.45 -1644.87C284.45 -1644.88 284.45 -1644.88 284.45 -1644.88C284.45 -1644.88 284.45 -1644.88 284.45 -1644.89C284.45 -1644.89 284.45 -1644.89 284.45 -1644.89C284.45 -1644.89 284.45 -1644.89 284.45 -1644.9C284.45 -1644.9 284.45 -1644.9 284.45 -1644.9C284.45 -1644.9 284.45 -1644.91 284.45 -1644.91C284.45 -1644.91 284.45 -1644.91 284.45 -1644.91C284.45 -1644.92 284.45 -1644.92 284.45 -1644.92C284.45 -1644.92 284.45 -1644.92 284.45 -1644.93C284.45 -1644.93 284.45 -1644.93 284.45 -1644.93C284.45 -1644.93 284.45 -1644.94 284.45 -1644.94C284.45 -1644.94 284.45 -1644.94 284.45 -1644.94C284.45 -1644.95 284.45 -1644.95 284.45 -1644.95C284.45 -1644.95 284.45 -1644.95 284.45 -1644.95C284.45 -1644.96 284.45 -1644.96 284.45 -1644.96C284.45 -1644.96 284.45 -1644.96 284.45 -1644.97C284.45 -1644.97 284.45 -1644.97 284.45 -1644.97C284.45 -1644.97 284.45 -1644.98 284.45 -1644.98C284.45 -1644.98 284.45 -1644.98 284.45 -1644.98C284.45 -1644.99 284.45 -1644.99 284.45 -1644.99C284.45 -1644.99 284.45 -1644.99 284.45 -1644.99C284.45 -1645 284.45 -1645 284.45 -1645C284.45 -1645 284.45 -1645 284.45 -1645.01C284.45 -1645.01 284.45 -1645.01 284.45 -1645.01C284.45 -1645.01 284.45 -1645.02 284.45 -1645.02C284.45 -1645.02 284.45 -1645.02 284.45 -1645.02C284.45 -1645.03 284.45 -1645.03 284.45 -1645.03C284.45 -1645.03 284.45 -1645.03 284.45 -1645.03C284.45 -1645.04 284.45 -1645.04 284.45 -1645.04C284.45 -1645.04 284.45 -1645.04 284.45 -1645.05C284.45 -1645.05 284.45 -1645.05 284.45 -1645.05C284.45 -1645.05 284.45 -1645.06 284.45 -1645.06C284.45 -1645.06 284.45 -1645.06 284.45 -1645.06C284.45 -1645.06 284.45 -1645.07 284.45 -1645.07C284.45 -1645.07 284.45 -1645.07 284.45 -1645.07C284.45 -1645.08 284.45 -1645.08 284.45 -1645.08C284.45 -1645.08 284.45 -1645.08 284.45 -1645.09C284.45 -1645.09 284.45 -1645.09 284.45 -1645.09C284.45 -1645.09 284.45 -1645.09 284.45 -1645.1C284.45 -1645.1 284.45 -1645.1 284.45 -1645.1C284.45 -1645.1 284.45 -1645.11 284.45 -1645.11C284.45 -1645.11 284.45 -1645.11 284.45 -1645.11C284.45 -1645.11 284.45 -1645.12 284.45 -1645.12C284.45 -1645.12 284.45 -1645.12 284.45 -1645.12C284.45 -1645.13 284.45 -1645.13 284.45 -1645.13C284.45 -1645.13 284.45 -1645.13 284.45 -1645.14C284.45 -1645.14 284.45 -1645.14 284.45 -1645.14C284.45 -1645.14 284.45 -1645.14 284.45 -1645.15C284.45 -1645.15 284.45 -1645.15 284.45 -1645.15C284.45 -1645.15 284.45 -1645.16 284.45 -1645.16C284.45 -1645.16 284.45 -1645.16 284.45 -1645.16C284.45 -1645.16 284.45 -1645.17 284.45 -1645.17C284.45 -1645.17 284.45 -1645.17 284.45 -1645.17C284.45 -1645.18 284.45 -1645.18 284.45 -1645.18C284.45 -1645.18 284.45 -1645.18 284.45 -1645.18C284.45 -1645.19 284.45 -1645.19 284.45 -1645.19C284.45 -1645.19 284.45 -1645.19 284.45 -1645.2C284.45 -1645.2 284.45 -1645.2 284.45 -1645.2C284.45 -1645.2 284.45 -1645.2 284.45 -1645.21C284.45 -1645.21 284.45 -1645.21 284.45 -1645.21C284.45 -1645.21 284.45 -1645.22 284.45 -1645.22C284.45 -1645.22 284.45 -1645.22 284.45 -1645.22C284.45 -1645.22 284.45 -1645.23 284.45 -1645.23C284.45 -1645.23 284.45 -1645.23 284.45 -1645.23C284.45 -1645.24 284.45 -1645.24 284.45 -1645.24C284.45 -1645.24 284.45 -1645.24 284.45 -1645.24C284.45 -1645.25 284.45 -1645.25 284.45 -1645.25C284.45 -1645.25 284.45 -1645.25 284.45 -1645.26C284.45 -1645.26 284.45 -1645.26 284.45 -1645.26C284.45 -1645.26 284.45 -1645.26 284.45 -1645.27C284.45 -1645.27 284.45 -1645.27 284.45 -1645.27C284.45 -1645.27 284.45 -1645.28 284.45 -1645.28C284.45 -1645.28 284.45 -1645.28 284.45 -1645.28C284.45 -1645.28 284.45 -1645.29 284.45 -1645.29C284.45 -1645.29 284.45 -1645.29 284.45 -1645.29C284.45 -1645.29 284.45 -1645.3 284.45 -1645.3C284.45 -1645.3 284.45 -1645.3 284.45 -1645.3C284.45 -1645.31 284.45 -1645.31 284.45 -1645.31C284.45 -1645.31 284.45 -1645.31 284.45 -1645.31C284.45 -1645.32 284.45 -1645.32 284.45 -1645.32C284.45 -1645.32 284.45 -1645.32 284.45 -1645.32C284.45 -1645.33 284.45 -1645.33 284.45 -1645.33C284.45 -1645.33 284.45 -1645.33 284.45 -1645.34C284.45 -1645.34 284.45 -1645.34 284.45 -1645.34C284.45 -1645.34 284.45 -1645.34 284.45 -1645.35C284.45 -1645.35 284.45 -1645.35 284.45 -1645.35C284.45 -1645.35 284.45 -1645.35 284.45 -1645.36C284.45 -1645.36 284.45 -1645.36 284.45 -1645.36C284.45 -1645.36 284.45 -1645.37 284.45 -1645.37C284.45 -1645.37 284.45 -1645.37 284.45 -1645.37C284.45 -1645.37 284.45 -1645.38 284.45 -1645.38C284.45 -1645.38 284.45 -1645.38 284.45 -1645.38C284.45 -1645.38 284.45 -1645.39 284.45 -1645.39C284.45 -1645.39 284.45 -1645.39 284.45 -1645.39C284.45 -1645.39 284.45 -1645.4 284.45 -1645.4C284.45 -1645.4 284.45 -1645.4 284.45 -1645.4C284.45 -1645.41 284.45 -1645.41 284.45 -1645.41C284.45 -1645.41 284.45 -1645.41 284.45 -1645.41C284.45 -1645.42 284.45 -1645.42 284.45 -1645.42C284.45 -1645.42 284.45 -1645.42 284.45 -1645.42C284.45 -1645.43 284.45 -1645.43 284.45 -1645.43C284.45 -1645.43 284.45 -1645.43 284.45 -1645.43C284.45 -1645.44 284.45 -1645.44 284.45 -1645.44C284.45 -1645.44 284.45 -1645.44 284.45 -1645.44C284.45 -1645.45 284.45 -1645.45 284.45 -1645.45C284.45 -1645.45 284.45 -1645.45 284.45 -1645.46C284.45 -1645.46 284.45 -1645.46 284.45 -1645.46C284.45 -1645.46 284.45 -1645.46 284.45 -1645.47C284.45 -1645.47 284.45 -1645.47 284.45 -1645.47C284.45 -1645.47 284.45 -1645.47 284.45 -1645.48C284.45 -1645.48 284.45 -1645.48 284.45 -1645.48C284.45 -1645.48 284.45 -1645.48 284.45 -1645.49C284.45 -1645.49 284.45 -1645.49 284.45 -1645.49C284.45 -1645.49 284.45 -1645.49 284.45 -1645.5C284.45 -1645.5 284.45 -1645.5 284.45 -1645.5C284.45 -1645.5 284.45 -1645.5 284.45 -1645.51C284.45 -1645.51 284.45 -1645.51 284.45 -1645.51C284.45 -1645.51 284.45 -1645.51 284.45 -1645.52C284.45 -1645.52 284.45 -1645.52 284.45 -1645.52C284.45 -1645.52 284.45 -1645.52 284.45 -1645.53C284.45 -1645.53 284.45 -1645.53 284.45 -1645.53C284.45 -1645.53 284.45 -1645.53 284.45 -1645.54C284.45 -1645.54 284.45 -1645.54 284.45 -1645.54C284.45 -1645.54 284.45 -1645.54 284.45 -1645.55C284.45 -1645.55 284.45 -1645.55 284.45 -1645.55C284.45 -1645.55 284.45 -1645.55 284.45 -1645.56C284.45 -1645.56 284.45 -1645.56 284.45 -1645.56C284.45 -1645.56 284.45 -1645.56 284.45 -1645.57C284.45 -1645.57 284.45 -1645.57 284.45 -1645.57C284.45 -1645.57 284.45 -1645.57 284.45 -1645.58C284.45 -1645.58 284.45 -1645.58 284.45 -1645.58C284.45 -1645.58 284.45 -1645.58 284.45 -1645.59C284.45 -1645.59 284.45 -1645.59 284.45 -1645.59C284.45 -1645.59 284.45 -1645.59 284.45 -1645.6C284.45 -1645.6 284.45 -1645.6 284.45 -1645.6C284.45 -1645.6 284.45 -1645.6 284.45 -1645.61C284.45 -1645.61 284.45 -1645.61 284.45 -1645.61C284.45 -1645.61 284.45 -1645.61 284.45 -1645.62C284.45 -1645.62 284.45 -1645.62 284.45 -1645.62C284.45 -1645.62 284.45 -1645.62 284.45 -1645.63C284.45 -1645.63 284.45 -1645.63 284.45 -1645.63C284.45 -1645.63 284.45 -1645.63 284.45 -1645.64C284.45 -1645.64 284.45 -1645.64 284.45 -1645.64C284.45 -1645.64 284.45 -1645.64 284.45 -1645.64C284.45 -1645.65 284.45 -1645.65 284.45 -1645.65C284.45 -1645.65 284.45 -1645.65 284.45 -1645.65C284.45 -1645.66 284.45 -1645.66 284.45 -1645.66C284.45 -1645.66 284.45 -1645.66 284.45 -1645.66C284.45 -1645.67 284.45 -1645.67 284.45 -1645.67C284.45 -1645.67 284.45 -1645.67 284.45 -1645.67C284.45 -1645.68 284.45 -1645.68 284.45 -1645.68C284.45 -1645.68 284.45 -1645.68 284.45 -1645.68C284.45 -1645.69 284.45 -1645.69 284.45 -1645.69C284.45 -1645.69 284.45 -1645.69 284.45 -1645.69C284.45 -1645.69 284.45 -1645.7 284.45 -1645.7C284.45 -1645.7 284.45 -1645.7 284.45 -1645.7C284.45 -1645.7 284.45 -1645.71 284.45 -1645.71C284.45 -1645.71 284.45 -1645.71 284.45 -1645.71C284.45 -1645.71 284.45 -1645.72 284.45 -1645.72C284.45 -1645.72 284.45 -1645.72 284.45 -1645.72C284.45 -1645.72 284.45 -1645.72 284.45 -1645.73C284.45 -1645.73 284.45 -1645.73 284.45 -1645.73C284.45 -1645.73 284.45 -1645.73 284.45 -1645.74C284.45 -1645.74 284.45 -1645.74 284.45 -1645.74C284.45 -1645.74 284.45 -1645.74 284.45 -1645.75C284.45 -1645.75 284.45 -1645.75 284.45 -1645.75C284.45 -1645.75 284.45 -1645.75 284.45 -1645.75C284.45 -1645.76 284.45 -1645.76 284.45 -1645.76C284.45 -1645.76 284.45 -1645.76 284.45 -1645.76C284.45 -1645.77 284.45 -1645.77 284.45 -1645.77C284.45 -1645.77 284.45 -1645.77 284.45 -1645.77C284.45 -1645.77 284.45 -1645.78 284.45 -1645.78C284.45 -1645.78 284.45 -1645.78 284.45 -1645.78C284.45 -1645.78 284.45 -1645.79 284.45 -1645.79C284.45 -1645.79 284.45 -1645.79 284.45 -1645.79C284.45 -1645.79 284.45 -1645.8 284.45 -1645.8C284.45 -1645.8 284.45 -1645.8 284.45 -1645.8C284.45 -1645.8 284.45 -1645.8 284.45 -1645.81C284.45 -1645.81 284.45 -1645.81 284.45 -1645.81C284.45 -1645.81 284.45 -1645.81 284.45 -1645.82C284.45 -1645.82 284.45 -1645.82 284.45 -1645.82C284.45 -1645.82 284.45 -1645.82 284.45 -1645.82C284.45 -1645.83 284.45 -1645.83 284.45 -1645.83C284.45 -1645.83 284.45 -1645.83 284.45 -1645.83C284.45 -1645.84 284.45 -1645.84 284.45 -1645.84C284.45 -1645.84 284.45 -1645.84 284.45 -1645.84C284.45 -1645.84 284.45 -1645.85 284.45 -1645.85C284.45 -1645.85 284.45 -1645.85 284.45 -1645.85C284.45 -1645.85 284.45 -1645.85 284.45 -1645.86C284.45 -1645.86 284.45 -1645.86 284.45 -1645.86C284.45 -1645.86 284.45 -1645.86 284.45 -1645.87C284.45 -1645.87 284.45 -1645.87 284.45 -1645.87C284.45 -1645.87 284.45 -1645.87 284.45 -1645.87C284.45 -1645.88 284.45 -1645.88 284.45 -1645.88C284.45 -1645.88 284.45 -1645.88 284.45 -1645.88C284.45 -1645.89 284.45 -1645.89 284.45 -1645.89C284.45 -1645.89 284.45 -1645.89 284.45 -1645.89C284.45 -1645.89 284.45 -1645.9 284.45 -1645.9C284.45 -1645.9 284.45 -1645.9 284.45 -1645.9C284.45 -1645.9 284.45 -1645.9 284.45 -1645.91C284.45 -1645.91 284.45 -1645.91 284.45 -1645.91C284.45 -1645.91 284.45 -1645.91 284.45 -1645.92C284.45 -1645.92 284.45 -1645.92 284.45 -1645.92C284.45 -1645.92 284.45 -1645.92 284.45 -1645.92C284.45 -1645.93 284.45 -1645.93 284.45 -1645.93C284.45 -1645.93 284.45 -1645.93 284.45 -1645.93C284.45 -1645.93 284.45 -1645.94 284.45 -1645.94C284.45 -1645.94 284.45 -1645.94 284.45 -1645.94C284.45 -1645.94 284.45 -1645.94 284.45 -1645.95C284.45 -1645.95 284.45 -1645.95 284.45 -1645.95C284.45 -1645.95 284.45 -1645.95 284.45 -1645.96C284.45 -1645.96 284.45 -1645.96 284.45 -1645.96C284.45 -1645.96 284.45 -1645.96 284.45 -1645.96C284.45 -1645.97 284.45 -1645.97 284.45 -1645.97C284.45 -1645.97 284.45 -1645.97 284.45 -1645.97C284.45 -1645.97 284.45 -1645.98 284.45 -1645.98C284.45 -1645.98 284.45 -1645.98 284.45 -1645.98C284.45 -1645.98 284.45 -1645.98 284.45 -1645.99C284.45 -1645.99 284.45 -1645.99 284.45 -1645.99C284.45 -1645.99 284.45 -1645.99 284.45 -1645.99C284.45 -1646 284.45 -1646 284.45 -1646C284.45 -1646 284.45 -1646 284.45 -1646C284.45 -1646 284.45 -1646.01 284.45 -1646.01C284.45 -1646.01 284.45 -1646.01 284.45 -1646.01C284.45 -1646.01 284.45 -1646.01 284.45 -1646.02C284.45 -1646.02 284.45 -1646.02 284.45 -1646.02C284.45 -1646.02 284.45 -1646.02 284.45 -1646.02C284.45 -1646.03 284.45 -1646.03 284.45 -1646.03C284.45 -1646.03 284.45 -1646.03 284.45 -1646.03C284.45 -1646.03 284.45 -1646.04 284.45 -1646.04C284.45 -1646.04 284.45 -1646.04 284.45 -1646.04C284.45 -1646.04 284.45 -1646.04 284.45 -1646.05C284.45 -1646.05 284.45 -1646.05 284.45 -1646.05C284.45 -1646.05 284.45 -1646.05 284.45 -1646.05C284.45 -1646.06 284.45 -1646.06 284.45 -1646.06C284.45 -1646.06 284.45 -1646.06 284.45 -1646.06C284.45 -1646.06 284.45 -1646.07 284.45 -1646.07C284.45 -1646.07 284.45 -1646.07 284.45 -1646.07C284.45 -1646.07 284.45 -1646.07 284.45 -1646.08C284.45 -1646.08 284.45 -1646.08 284.45 -1646.08C284.45 -1646.08 284.45 -1646.08 284.45 -1646.08C284.45 -1646.09 284.45 -1646.09 284.45 -1646.09C284.45 -1646.09 284.45 -1646.09 284.45 -1646.09C284.45 -1646.09 284.45 -1646.1 284.45 -1646.1C284.45 -1646.1 284.45 -1646.1 284.45 -1646.1C284.45 -1646.1 284.45 -1646.1 284.45 -1646.1C284.45 -1646.11 284.45 -1646.11 284.45 -1646.11C284.45 -1646.11 284.45 -1646.11 284.45 -1646.11C284.45 -1646.11 284.45 -1646.12 284.45 -1646.12C284.45 -1646.12 284.45 -1646.12 284.45 -1646.12C284.45 -1646.12 284.45 -1646.12 284.45 -1646.13C284.45 -1646.13 284.45 -1646.13 284.45 -1646.13C284.45 -1646.13 284.45 -1646.13 284.45 -1646.13C284.45 -1646.14 284.45 -1646.14 284.45 -1646.14C284.45 -1646.14 284.45 -1646.14 284.45 -1646.14C284.45 -1646.14 284.45 -1646.14 284.45 -1646.15C284.45 -1646.15 284.45 -1646.15 284.45 -1646.15C284.45 -1646.15 284.45 -1646.15 284.45 -1646.15C284.45 -1646.16 284.45 -1646.16 284.45 -1646.16C284.45 -1646.16 284.45 -1646.16 284.45 -1646.16C284.45 -1646.16 284.45 -1646.17 284.45 -1646.17C284.45 -1646.17 284.45 -1646.17 284.45 -1646.17C284.45 -1646.17 284.45 -1646.17 284.45 -1646.17C284.45 -1646.18 284.45 -1646.18 284.45 -1646.18C284.45 -1646.18 284.45 -1646.18 284.45 -1646.18C284.45 -1646.18 284.45 -1646.19 284.45 -1646.19C284.45 -1646.19 284.45 -1646.19 284.45 -1646.19C284.45 -1646.19 284.45 -1646.19 284.45 -1646.19C284.45 -1646.2 284.45 -1646.2 284.45 -1646.2C284.45 -1646.2 284.45 -1646.2 284.45 -1646.2C284.45 -1646.2 284.45 -1646.21 284.45 -1646.21C284.45 -1646.21 284.45 -1646.21 284.45 -1646.21C284.45 -1646.21 284.45 -1646.21 284.45 -1646.21C284.45 -1646.22 284.45 -1646.22 284.45 -1646.22C284.45 -1646.22 284.45 -1646.22 284.45 -1646.22C284.45 -1646.22 284.45 -1646.23 284.45 -1646.23C284.45 -1646.23 284.45 -1646.23 284.45 -1646.23C284.45 -1646.23 284.45 -1646.23 284.45 -1646.23C284.45 -1646.24 284.45 -1646.24 284.45 -1646.24C284.45 -1646.24 284.45 -1646.24 284.45 -1646.24C284.45 -1646.24 284.45 -1646.24 284.45 -1646.25C284.45 -1646.25 284.45 -1646.25 284.45 -1646.25C284.45 -1646.25 284.45 -1646.25 284.45 -1646.25C284.45 -1646.26 284.45 -1646.26 284.45 -1646.26C284.45 -1646.26 284.45 -1646.26 284.45 -1646.26C284.45 -1646.26 284.45 -1646.26 284.45 -1646.27C284.45 -1646.27 284.45 -1646.27 284.45 -1646.27C284.45 -1646.27 284.45 -1646.27 284.45 -1646.27C284.45 -1646.27 284.45 -1646.28 284.45 -1646.28C284.45 -1646.28 284.45 -1646.28 284.45 -1646.28C284.45 -1646.28 284.45 -1646.28 284.45 -1646.29C284.45 -1646.29 284.45 -1646.29 284.45 -1646.29C284.45 -1646.29 284.45 -1646.29 284.45 -1646.29C284.45 -1646.29 284.45 -1646.3 284.45 -1646.3C284.45 -1646.3 284.45 -1646.3 284.45 -1646.3C284.45 -1646.3 284.45 -1646.3 284.45 -1646.3C284.45 -1646.31 284.45 -1646.31 284.45 -1646.31C284.45 -1646.31 284.45 -1646.31 284.45 -1646.31C284.45 -1646.31 284.45 -1646.31 284.45 -1646.32C284.45 -1646.32 284.45 -1646.32 284.45 -1646.32C284.45 -1646.32 284.45 -1646.32 284.45 -1646.32C284.45 -1646.32 284.45 -1646.33 284.45 -1646.33C284.45 -1646.33 284.45 -1646.33 284.45 -1646.33C284.45 -1646.33 284.45 -1646.33 284.45 -1646.33C284.45 -1646.34 284.45 -1646.34 284.45 -1646.34C284.45 -1646.34 284.45 -1646.34 284.45 -1646.34C284.45 -1646.34 284.45 -1646.34 284.45 -1646.35C284.45 -1646.35 284.45 -1646.35 284.45 -1646.35C284.45 -1646.35 284.45 -1646.35 284.45 -1646.35C284.45 -1646.35 284.45 -1646.36 284.45 -1646.36C284.45 -1646.36 284.45 -1646.36 284.45 -1646.36C284.45 -1646.36 284.45 -1646.36 284.45 -1646.36C284.45 -1646.37 284.45 -1646.37 284.45 -1646.37C284.45 -1646.37 284.45 -1646.37 284.45 -1646.37C284.45 -1646.37 284.45 -1646.37 284.45 -1646.38C284.45 -1646.38 284.45 -1646.38 284.45 -1646.38C284.45 -1646.38 284.45 -1646.38 284.45 -1646.38C284.45 -1646.38 284.45 -1646.39 284.45 -1646.39C284.45 -1646.39 284.45 -1646.39 284.45 -1646.39C284.45 -1646.39 284.45 -1646.39 284.45 -1646.39C284.45 -1646.4 284.45 -1646.4 284.45 -1646.4C284.45 -1646.4 284.45 -1646.4 284.45 -1646.4C284.45 -1646.4 284.45 -1646.4 284.45 -1646.4C284.45 -1646.41 284.45 -1646.41 284.45 -1646.41C284.45 -1646.41 284.45 -1646.41 284.45 -1646.41C284.45 -1646.41 284.45 -1646.41 284.45 -1646.42C284.45 -1646.42 284.45 -1646.42 284.45 -1646.42C284.45 -1646.42 284.45 -1646.42 284.45 -1646.42C284.45 -1646.42 284.45 -1646.43 284.45 -1646.43C284.45 -1646.43 284.45 -1646.43 284.45 -1646.43C284.45 -1646.43 284.45 -1646.43 284.45 -1646.43C284.45 -1646.43 284.45 -1646.44 284.45 -1646.44C284.45 -1646.44 284.45 -1646.44 284.45 -1646.44C284.45 -1646.44 284.45 -1646.44 284.45 -1646.44C284.45 -1646.45 284.45 -1646.45 284.45 -1646.45C284.45 -1646.45 284.45 -1646.45 284.45 -1646.45C284.45 -1646.45 284.45 -1646.45 284.45 -1646.46C284.45 -1646.46 284.45 -1646.46 284.45 -1646.46C284.45 -1646.46 284.45 -1646.46 284.45 -1646.46C284.45 -1646.46 284.45 -1646.46 284.45 -1646.47H280.45ZM280.45 -1643.77V-1604.62H284.45V-1643.77H280.45ZM282.45 -1602.62H366.6V-1606.62H282.45V-1602.62ZM366.6 -1602.62C372.692 -1602.62 377.726 -1600.56 381.836 -1596.45L384.664 -1599.28C379.774 -1604.17 373.708 -1606.62 366.6 -1606.62V-1602.62ZM381.836 -1596.45C385.965 -1592.32 388 -1587.43 388 -1581.67H392C392 -1588.5 389.535 -1594.41 384.664 -1599.28L381.836 -1596.45ZM388 -1581.67V-1517.77H392V-1581.67H388ZM390 -1519.77H30V-1515.77H390V-1519.77ZM32 -1517.77L32 -1643.77H28L28 -1517.77H32ZM32 -1643.77C32 -1678.34 44.093 -1707.68 68.3142 -1731.9L65.4858 -1734.73C40.507 -1709.75 28 -1679.39 28 -1643.77H32ZM68.3142 -1731.9C92.5354 -1756.12 121.875 -1768.22 156.45 -1768.22V-1772.22C120.825 -1772.22 90.4646 -1759.71 65.4858 -1734.73L68.3142 -1731.9ZM156.45 -1768.22C174.467 -1768.22 191.585 -1764.53 207.822 -1757.15L209.478 -1760.79C192.715 -1768.41 175.033 -1772.22 156.45 -1772.22V-1768.22ZM207.81 -1757.15C223.763 -1749.77 237.488 -1739.58 249.003 -1726.59L251.997 -1729.24C240.112 -1742.65 225.937 -1753.17 209.49 -1760.78L207.81 -1757.15ZM117.3 -1603.07H195.6V-1607.07H117.3V-1603.07ZM197.6 -1605.07V-1644.22H193.6V-1605.07H197.6ZM197.6 -1644.22C197.6 -1655.54 193.647 -1665.2 185.764 -1673.08L182.936 -1670.25C190.053 -1663.13 193.6 -1654.5 193.6 -1644.22H197.6ZM185.764 -1673.08C177.598 -1681.25 167.793 -1685.37 156.45 -1685.37V-1681.37C166.707 -1681.37 175.502 -1677.69 182.936 -1670.25L185.764 -1673.08ZM156.45 -1685.37C145.105 -1685.37 135.435 -1681.24 127.558 -1673.05L130.442 -1670.28C137.565 -1677.69 146.195 -1681.37 156.45 -1681.37V-1685.37ZM127.614 -1673.11C119.422 -1665.23 115.3 -1655.56 115.3 -1644.22H119.3C119.3 -1654.47 122.978 -1663.1 130.386 -1670.22L127.614 -1673.11ZM115.3 -1644.22V-1605.07H119.3V-1644.22H115.3ZM219 -1842.4L217.596 -1843.83L219 -1842.4ZM62.4 -1842.4L60.9858 -1840.99L62.4 -1842.4ZM30 -2062.45V-2064.45H28V-2062.45H30ZM110.1 -2055.25L108.641 -2053.88L108.663 -2053.86L108.686 -2053.84L110.1 -2055.25ZM124.05 -1903.6L125.464 -1905.02L124.05 -1903.6ZM157.35 -1903.6L158.718 -1902.14L158.741 -1902.17L158.764 -1902.19L157.35 -1903.6ZM197.4 -2030.05L198.804 -2028.63L197.4 -2030.05ZM355.8 -2029.6L354.405 -2028.17L354.415 -2028.16L355.8 -2029.6ZM389.55 -1810V-1808H391.55V-1810H389.55ZM294.6 -1967.95L293.312 -1966.42L293.32 -1966.42L294.6 -1967.95ZM259.05 -1968.4L257.682 -1969.86L259.05 -1968.4ZM249.85 -1920.25C249.85 -1890.5 239.121 -1865.06 217.596 -1843.83L220.404 -1840.98C242.679 -1862.95 253.85 -1889.41 253.85 -1920.25H249.85ZM217.596 -1843.83C196.068 -1822.59 170.321 -1812 140.25 -1812V-1808C171.379 -1808 198.132 -1819.01 220.404 -1840.98L217.596 -1843.83ZM140.25 -1812C110.485 -1812 85.0426 -1822.59 63.8142 -1843.82L60.9858 -1840.99C82.9574 -1819.02 109.415 -1808 140.25 -1808V-1812ZM63.8142 -1843.82C42.5858 -1865.04 32 -1890.49 32 -1920.25H28C28 -1889.42 39.0141 -1862.96 60.9858 -1840.99L63.8142 -1843.82ZM32 -1920.25L32 -2062.45H28L28 -1920.25H32ZM30 -2060.45H93.9V-2064.45H30V-2060.45ZM93.9 -2060.45C99.6201 -2060.45 104.5 -2058.3 108.641 -2053.88L111.559 -2056.62C106.7 -2061.8 100.78 -2064.45 93.9 -2064.45V-2060.45ZM108.686 -2053.84C112.815 -2049.71 114.85 -2044.82 114.85 -2039.05H118.85C118.85 -2045.89 116.385 -2051.8 111.514 -2056.67L108.686 -2053.84ZM114.85 -2039.05V-1920.25H118.85V-2039.05H114.85ZM114.85 -1920.25C114.85 -1913.38 117.493 -1907.33 122.636 -1902.19L125.464 -1905.02C121.007 -1909.47 118.85 -1914.53 118.85 -1920.25H114.85ZM122.636 -1902.19C127.507 -1897.32 133.414 -1894.85 140.25 -1894.85V-1898.85C134.486 -1898.85 129.593 -1900.89 125.464 -1905.02L122.636 -1902.19ZM140.25 -1894.85C147.356 -1894.85 153.546 -1897.29 158.718 -1902.14L155.982 -1905.06C151.554 -1900.91 146.344 -1898.85 140.25 -1898.85V-1894.85ZM158.764 -1902.19C163.907 -1907.33 166.55 -1913.38 166.55 -1920.25H162.55C162.55 -1914.53 160.393 -1909.47 155.936 -1905.02L158.764 -1902.19ZM166.55 -1920.25V-1952.2H162.55V-1920.25H166.55ZM166.55 -1952.2C166.55 -1981.96 177.279 -2007.4 198.804 -2028.63L195.996 -2031.48C173.721 -2009.51 162.55 -1983.05 162.55 -1952.2H166.55ZM198.804 -2028.63C220.332 -2049.86 246.079 -2060.45 276.15 -2060.45V-2064.45C245.021 -2064.45 218.268 -2053.44 195.996 -2031.48L198.804 -2028.63ZM276.15 -2060.45C306.214 -2060.45 332.268 -2049.72 354.405 -2028.17L357.195 -2031.04C334.332 -2053.29 307.286 -2064.45 276.15 -2064.45V-2060.45ZM354.415 -2028.16C376.54 -2006.92 387.55 -1981.63 387.55 -1952.2H391.55C391.55 -1982.77 380.06 -2009.08 357.185 -2031.04L354.415 -2028.16ZM387.55 -1952.2V-1810H391.55V-1952.2H387.55ZM389.55 -1812H326.1V-1808H389.55V-1812ZM326.1 -1812C320.008 -1812 314.974 -1814.06 310.864 -1818.17L308.036 -1815.34C312.926 -1810.45 318.992 -1808 326.1 -1808V-1812ZM310.864 -1818.17C306.755 -1822.28 304.7 -1827.31 304.7 -1833.4H300.7C300.7 -1826.29 303.145 -1820.23 308.036 -1815.34L310.864 -1818.17ZM304.7 -1833.4V-1952.2H300.7V-1833.4H304.7ZM304.7 -1952.2C304.7 -1958.9 301.649 -1964.68 295.88 -1969.49L293.32 -1966.42C298.351 -1962.22 300.7 -1957.5 300.7 -1952.2H304.7ZM295.888 -1969.48C289.877 -1974.54 283.282 -1977.15 276.15 -1977.15V-1973.15C282.218 -1973.15 287.923 -1970.96 293.312 -1966.42L295.888 -1969.48ZM276.15 -1977.15C269.044 -1977.15 262.854 -1974.71 257.682 -1969.86L260.418 -1966.94C264.846 -1971.09 270.056 -1973.15 276.15 -1973.15V-1977.15ZM257.682 -1969.86C252.499 -1965 249.85 -1959.08 249.85 -1952.2H253.85C253.85 -1957.92 256.001 -1962.8 260.418 -1966.94L257.682 -1969.86ZM249.85 -1952.2V-1920.25H253.85V-1952.2H249.85Z" fill="white" fill-opacity="0.3" mask="url(#path-3-outside-1_266_648)"/>
</g>
<defs>
<linearGradient id="paint0_linear_266_648" x1="177.5" y1="-3.11013e-06" x2="187.622" y2="1087.52" gradientUnits="userSpaceOnUse">
<stop stop-color="#BA0506"/>
<stop offset="1" stop-color="#0C0000"/>
</linearGradient>
<clipPath id="clip0_266_648">
<rect x="-119" width="552" height="1122" rx="100" fill="white"/>
</clipPath>
</defs>
</svg>
