<svg width="30" height="30" viewBox="0 0 30 30" fill="none" xmlns="http://www.w3.org/2000/svg">
<rect width="30" height="30" rx="10" fill="#383838"/>
<path fill-rule="evenodd" clip-rule="evenodd" d="M11.7667 7.43483C11.7107 7.4263 11.6538 7.42496 11.5974 7.43083C10.476 7.55217 8.76937 8.1575 7.76137 8.70417C7.6951 8.74093 7.63558 8.78873 7.58537 8.8455C7.16671 9.32417 6.78671 10.1042 6.48937 10.8428C6.18271 11.6002 5.92937 12.4002 5.78671 12.9788C5.31471 14.8588 5.05737 17.1162 5.02271 19.2575C5.02269 19.3642 5.04829 19.4694 5.09737 19.5642C5.49737 20.3282 6.36004 21.0362 7.22404 21.5535C8.09737 22.0775 9.11737 22.4908 9.93871 22.5708C10.0371 22.5802 10.1364 22.5667 10.2287 22.5313C10.321 22.4959 10.4038 22.4396 10.4707 22.3668C10.676 22.1442 11.0254 21.6242 11.2894 21.2202C11.4094 21.0362 11.5227 20.8602 11.6107 20.7202C12.4934 20.8802 13.6 20.9735 15 20.9735C16.3974 20.9735 17.504 20.8802 18.3867 20.7202C18.4747 20.8615 18.5867 21.0362 18.7067 21.2188C18.9707 21.6242 19.32 22.1442 19.5267 22.3668C19.5936 22.4396 19.6764 22.4959 19.7688 22.5313C19.8611 22.5667 19.9603 22.5802 20.0587 22.5708C20.88 22.4908 21.8987 22.0775 22.772 21.5535C23.636 21.0362 24.4987 20.3282 24.9 19.5642C24.9487 19.4693 24.9738 19.3641 24.9734 19.2575C24.94 17.1162 24.6814 14.8575 24.212 12.9775C24.0234 12.2514 23.7878 11.5384 23.5067 10.8428C23.2094 10.1042 22.8294 9.32283 22.412 8.8455C22.3614 8.78861 22.3015 8.7408 22.2347 8.70417C21.228 8.1575 19.5214 7.55217 18.4 7.43083C18.3437 7.42496 18.2868 7.4263 18.2307 7.43483C17.9797 7.4842 17.7443 7.59302 17.544 7.75216C17.0966 8.11205 16.735 8.56707 16.4854 9.08417C15.9912 9.04534 15.4957 9.02621 15 9.02683C14.464 9.02683 13.9676 9.0455 13.5107 9.08283C13.2609 8.56622 12.8993 8.11167 12.452 7.75216C12.2522 7.59321 12.0172 7.48441 11.7667 7.43483ZM19.6907 20.3842C19.8783 20.6732 20.0708 20.959 20.268 21.2415C20.796 21.1215 21.4694 20.8415 22.1147 20.4548C22.8387 20.0215 23.4134 19.5215 23.6907 19.0988C23.6467 17.0908 23.3987 15.0055 22.9707 13.2882C22.7965 12.6192 22.5792 11.9623 22.32 11.3215C22.0534 10.6575 21.7667 10.0948 21.5174 9.77217C20.6507 9.32283 19.284 8.84817 18.3934 8.71883L18.316 8.77217C18.2056 8.85908 18.1046 8.9574 18.0147 9.0655C17.9596 9.13217 17.9094 9.19661 17.864 9.25883C18.2703 9.33439 18.6338 9.42194 18.9547 9.5215C19.8667 9.8015 20.524 10.1882 20.8454 10.6162C20.9472 10.752 20.9909 10.9226 20.9669 11.0907C20.9429 11.2587 20.8532 11.4103 20.7174 11.5122C20.6501 11.5626 20.5736 11.5993 20.4922 11.6201C20.4108 11.641 20.3261 11.6456 20.2429 11.6337C20.0748 11.6097 19.9232 11.52 19.8214 11.3842C19.7427 11.2802 19.4 10.9975 18.5787 10.7442C17.7854 10.5015 16.6187 10.3068 15 10.3068C13.3814 10.3068 12.2134 10.5015 11.4214 10.7455C10.6 10.9988 10.2574 11.2788 10.1787 11.3842C10.1283 11.4514 10.0651 11.508 9.99278 11.5509C9.92046 11.5937 9.84042 11.6218 9.75722 11.6337C9.58918 11.6577 9.4185 11.614 9.28271 11.5122C9.21547 11.4617 9.15882 11.3986 9.116 11.3262C9.07318 11.2539 9.04502 11.1739 9.03314 11.0907C9.00913 10.9226 9.05286 10.752 9.15471 10.6162C9.47604 10.1868 10.1334 9.80283 11.0454 9.52283C11.3654 9.42239 11.728 9.33483 12.1334 9.26017C12.0857 9.19296 12.035 9.12801 11.9814 9.0655C11.8919 8.95747 11.7914 8.85915 11.6814 8.77217L11.6027 8.71883C10.7134 8.84817 9.3467 9.32283 8.48004 9.77217C8.22937 10.0962 7.94404 10.6575 7.67604 11.3215C7.39204 12.0282 7.15604 12.7708 7.02671 13.2882C6.59737 15.0055 6.34937 17.0908 6.30671 19.0988C6.58404 19.5228 7.15737 20.0215 7.88137 20.4562C8.52804 20.8428 9.20004 21.1228 9.72937 21.2415C9.92871 20.9604 10.1212 20.6746 10.3067 20.3842C9.26004 20.0122 8.69871 19.5015 8.33337 18.9548C8.2868 18.8848 8.25447 18.8063 8.23824 18.7237C8.22202 18.6412 8.2222 18.5563 8.23879 18.4738C8.25539 18.3914 8.28805 18.313 8.33494 18.2432C8.38182 18.1733 8.442 18.1134 8.51204 18.0668C8.58208 18.0203 8.6606 17.9879 8.74313 17.9717C8.82566 17.9555 8.91058 17.9557 8.99304 17.9723C9.0755 17.9888 9.15388 18.0215 9.22372 18.0684C9.29355 18.1153 9.35346 18.1755 9.40004 18.2455C9.74671 18.7682 10.6587 19.6935 15 19.6935C19.3414 19.6935 20.2534 18.7682 20.6 18.2455C20.6941 18.1041 20.8405 18.0058 21.007 17.9723C21.1736 17.9387 21.3466 17.9728 21.488 18.0668C21.6295 18.1609 21.7278 18.3073 21.7613 18.4738C21.7948 18.6404 21.7608 18.8134 21.6667 18.9548C21.3014 19.5015 20.7387 20.0135 19.6907 20.3842ZM10.44 14.3495C10.7654 14.0002 11.2067 13.8028 11.6667 13.8002C12.1267 13.8028 12.568 14.0002 12.8934 14.3495C13.2174 14.7002 13.4 15.1735 13.4 15.6668C13.4 16.1602 13.2174 16.6335 12.8934 16.9842C12.568 17.3335 12.1267 17.5308 11.6667 17.5335C11.4354 17.5313 11.2071 17.4814 10.996 17.3868C10.785 17.2923 10.5957 17.1552 10.44 16.9842C10.1112 16.6246 9.93021 16.1541 9.93337 15.6668C9.93337 15.1735 10.116 14.7002 10.44 14.3495ZM18.3334 13.8002C17.8734 13.8028 17.432 14.0002 17.1067 14.3495C16.7827 14.7002 16.6 15.1735 16.6 15.6668C16.6 16.1602 16.7827 16.6335 17.1067 16.9842C17.432 17.3335 17.8734 17.5308 18.3334 17.5335C18.7934 17.5308 19.2347 17.3335 19.56 16.9842C19.884 16.6335 20.0667 16.1602 20.0667 15.6668C20.0667 15.1735 19.884 14.7002 19.56 14.3495C19.4044 14.1784 19.2151 14.0413 19.004 13.9468C18.793 13.8523 18.5646 13.8024 18.3334 13.8002Z" fill="white"/>
</svg>
