<svg width="30" height="30" viewBox="0 0 30 30" fill="none" xmlns="http://www.w3.org/2000/svg">
<rect width="30" height="30" rx="10" fill="#FF1313"/>
<path d="M10.1517 13.6107C9.33675 13.6107 9.16675 13.7707 9.16675 14.5365V15.9257C9.16675 16.6923 9.33675 16.8515 10.1517 16.8515H12.1209V22.4073C12.1209 23.174 12.2917 23.3332 13.1059 23.3332H15.0759C15.8909 23.3332 16.0609 23.1732 16.0609 22.4073V16.8515H18.2726C18.8901 16.8515 19.0492 16.739 19.2192 16.1798L19.6417 14.7915C19.9326 13.834 19.7526 13.6107 18.6942 13.6107H16.0609V11.2965C16.0609 10.7848 16.5017 10.3698 17.0451 10.3698H19.8484C20.6634 10.3698 20.8334 10.2107 20.8334 9.44484V7.5915C20.8334 6.82567 20.6634 6.6665 19.8484 6.6665H17.0451C14.3259 6.6665 12.1209 8.739 12.1209 11.2965V13.6107H10.1517Z" stroke="white" stroke-width="1.25" stroke-linecap="round" stroke-linejoin="round"/>
</svg>
