<svg width="1130" height="1092" viewBox="0 0 1130 1092" fill="none" xmlns="http://www.w3.org/2000/svg">
<path d="M558.823 35.4824C849.782 35.4824 1085.65 271.361 1085.65 562.332C1085.65 853.303 849.782 1089.18 558.823 1089.18C267.864 1089.18 31.9946 853.303 31.9946 562.332C31.9947 271.361 267.864 35.4825 558.823 35.4824Z" stroke="white" stroke-width="4"/>
<circle cx="175.5" cy="202.682" r="26.5" fill="white"/>
<circle cx="944.5" cy="202.682" r="26.5" fill="white"/>
<path d="M60.18 227.663C55.9579 224.767 52.7022 221.499 50.4131 217.859C48.1239 214.219 46.8634 210.541 46.6315 206.825C46.4298 203.064 46.8628 199.416 47.9303 195.88C48.9841 192.27 50.6423 188.815 52.905 185.517C56.3141 180.547 60.345 176.65 64.9979 173.827L78.5879 183.149C74.3952 184.736 70.8507 187.64 67.9545 191.862C65.541 195.381 64.4652 198.976 64.7273 202.648C64.9755 206.247 67.0348 209.373 70.905 212.028C74.2915 214.351 77.6639 214.95 81.022 213.826C84.3362 212.672 87.1397 210.423 89.4326 207.081C93.0227 201.847 94.563 197.245 94.0534 193.273L107.973 202.822C107.015 208.179 104.846 213.32 101.467 218.246C99.144 221.633 96.495 224.505 93.5199 226.862C90.5448 229.219 87.311 231.01 83.8183 232.236C80.3118 233.388 76.4995 233.619 72.3813 232.928C68.2933 232.194 64.2262 230.438 60.18 227.663Z" fill="white"/>
<path d="M81.8623 175.023C77.5667 171.348 75.6394 166.997 76.0804 161.969C76.5155 156.867 78.8135 151.884 82.9742 147.021C88.1405 140.983 93.7712 136.781 99.8663 134.415L112.024 144.817C105.483 146.801 100.103 150.341 95.8847 155.435C93.735 157.947 93.2883 159.741 94.5445 160.816C95.1119 161.301 95.9681 161.367 97.1131 161.013C98.2177 160.625 99.4551 159.999 100.825 159.136C102.23 158.232 103.78 157.242 105.474 156.164C107.162 155.011 108.974 154 110.912 153.131C112.883 152.221 114.838 151.577 116.776 151.199C118.748 150.781 120.854 150.863 123.093 151.445C125.332 152.028 127.445 153.168 129.43 154.867C138.629 162.738 138.132 172.63 127.938 184.545C122.39 191.029 116.234 195.517 109.468 198.011L96.7632 187.141C104.42 184.918 110.503 181.173 115.01 175.905C116.536 174.122 117.431 172.747 117.696 171.781C117.996 170.774 117.782 169.959 117.052 169.334C116.404 168.78 115.383 168.784 113.989 169.346C112.555 169.874 110.997 170.751 109.314 171.979C107.592 173.172 105.603 174.348 103.348 175.507C101.093 176.666 98.8402 177.617 96.5905 178.36C94.3409 179.102 91.9114 179.234 89.302 178.757C86.6521 178.244 84.1722 177 81.8623 175.023Z" fill="white"/>
<path d="M125.185 112.242C127.107 105.236 130.83 99.2222 136.356 94.201C140.935 90.0406 145.693 87.6632 150.63 87.0689C155.606 86.4387 160.102 88.3341 164.119 92.755C166.522 95.3997 167.86 98.2199 168.132 101.216C168.443 104.175 168.132 107.521 167.198 111.252C167.019 111.847 166.719 112.984 166.299 114.663C165.918 116.306 165.636 117.463 165.453 118.134C165.309 118.769 165.156 119.592 164.995 120.604C164.833 121.616 164.793 122.444 164.876 123.09L179.619 109.694L189.733 120.825L157.405 150.2L152.402 144.693C150.608 142.72 149.269 140.73 148.383 138.724C147.537 136.683 147.175 134.381 147.298 131.82C147.421 129.258 147.604 127.398 147.848 126.239C148.057 125.041 148.554 122.932 149.34 119.911C149.348 119.76 149.371 119.667 149.41 119.631C149.414 119.556 149.437 119.463 149.481 119.352C149.488 119.201 149.493 119.088 149.497 119.013C149.54 118.901 149.583 118.79 149.626 118.679C149.863 117.671 150.226 116.405 150.714 114.88C151.206 113.28 151.545 112.107 151.732 111.361C151.958 110.579 152.036 109.752 151.964 108.88C151.932 107.972 151.647 107.222 151.109 106.63C149.567 104.933 147.513 105.25 144.947 107.581C140.723 111.419 137.884 117.097 136.429 124.617L125.185 112.242Z" fill="white"/>
<path d="M928.371 41.7996L947.399 56.6871C955.002 62.6356 959.154 69.1003 959.854 76.0814C960.587 83.0205 958.308 89.8714 953.017 96.6341C947.726 103.397 941.608 107.278 934.664 108.278C927.752 109.236 920.495 106.74 912.892 100.792L893.864 85.9045L928.371 41.7996ZM922.077 88.2729C927.622 92.6109 932.958 91.5036 938.084 84.9509C943.211 78.3982 943.002 72.9528 937.458 68.6147L933.362 65.4104L917.982 85.0686L922.077 88.2729Z" fill="white"/>
<path d="M947.304 120.193C947.502 112.538 950.604 105.716 956.608 99.7271C962.612 93.7385 969.423 90.6737 977.041 90.5326C984.697 90.3539 991.933 93.6819 998.75 100.517C1005.57 107.351 1008.88 114.596 1008.68 122.252C1008.52 129.869 1005.44 136.672 999.431 142.661C993.428 148.65 986.598 151.733 978.942 151.912C971.324 152.053 964.106 148.706 957.289 141.872C950.472 135.037 947.143 127.811 947.304 120.193ZM977.381 133.582C980.399 133.435 983.285 131.987 986.042 129.237C988.799 126.488 990.254 123.605 990.409 120.588C990.601 117.609 989.436 114.854 986.912 112.324C984.389 109.794 981.618 108.603 978.601 108.75C975.622 108.934 972.754 110.402 969.997 113.151C967.241 115.9 965.766 118.765 965.574 121.744C965.419 124.761 966.603 127.534 969.127 130.064C971.65 132.594 974.402 133.766 977.381 133.582Z" fill="white"/>
<path d="M1023.61 128.102L1054.2 165.716L1041.66 175.911L1032.17 164.242L1001.26 189.378L989.65 175.102L1020.56 149.967L1011.07 138.298L1023.61 128.102Z" fill="white"/>
<path d="M1020 214.746L1009.77 199.073L1068.11 186L1078.96 202.611L1043.5 250.715L1033.26 235.041L1038.18 228.964L1027.59 212.754L1020 214.746ZM1053.22 205.763L1041.09 208.999L1047.09 218.175L1054.92 208.375C1056.48 206.467 1058.2 204.708 1060.08 203.098C1058.12 203.997 1055.83 204.885 1053.22 205.763Z" fill="white"/>
<path d="M1097.41 247.196C1103.45 251.23 1107.98 256.661 1111 263.489C1113.51 269.146 1114.26 274.411 1113.27 279.283C1112.29 284.204 1109.08 287.873 1103.61 290.29C1100.35 291.735 1097.25 292.114 1094.32 291.427C1091.41 290.789 1088.34 289.438 1085.09 287.375C1084.58 287.016 1083.6 286.373 1082.14 285.444C1080.7 284.565 1079.69 283.932 1079.11 283.547C1078.55 283.21 1077.82 282.805 1076.91 282.333C1076 281.86 1075.23 281.561 1074.59 281.435L1082.65 299.652L1068.9 305.737L1051.22 265.792L1058.03 262.782C1060.47 261.703 1062.78 261.059 1064.96 260.852C1067.16 260.693 1069.46 261.076 1071.85 262.001C1074.25 262.926 1075.95 263.687 1076.98 264.284C1078.05 264.86 1079.89 265.997 1082.51 267.697C1082.65 267.751 1082.73 267.803 1082.75 267.852C1082.82 267.879 1082.9 267.93 1083 268.006C1083.14 268.061 1083.24 268.101 1083.31 268.129C1083.4 268.205 1083.5 268.281 1083.59 268.357C1084.47 268.9 1085.56 269.643 1086.85 270.588C1088.21 271.559 1089.22 272.251 1089.87 272.664C1090.54 273.126 1091.3 273.46 1092.15 273.667C1093.02 273.923 1093.82 273.889 1094.55 273.566C1096.65 272.638 1097 270.589 1095.6 267.418C1093.29 262.2 1088.79 257.714 1082.12 253.96L1097.41 247.196Z" fill="white"/>
</svg>
