<svg width="30" height="30" viewBox="0 0 30 30" fill="none" xmlns="http://www.w3.org/2000/svg">
<rect width="30" height="30" rx="10" fill="#383838"/>
<path d="M11.5001 6.6665H18.5001C21.1667 6.6665 23.3334 8.83317 23.3334 11.4998V18.4998C23.3334 19.7817 22.8242 21.0111 21.9178 21.9175C21.0113 22.8239 19.782 23.3332 18.5001 23.3332H11.5001C8.83341 23.3332 6.66675 21.1665 6.66675 18.4998V11.4998C6.66675 10.218 7.17597 8.98858 8.0824 8.08215C8.98882 7.17573 10.2182 6.6665 11.5001 6.6665ZM11.3334 8.33317C10.5378 8.33317 9.7747 8.64924 9.21209 9.21185C8.64949 9.77446 8.33341 10.5375 8.33341 11.3332V18.6665C8.33341 20.3248 9.67508 21.6665 11.3334 21.6665H18.6667C19.4624 21.6665 20.2255 21.3504 20.7881 20.7878C21.3507 20.2252 21.6667 19.4622 21.6667 18.6665V11.3332C21.6667 9.67484 20.3251 8.33317 18.6667 8.33317H11.3334ZM19.3751 9.58317C19.6513 9.58317 19.9163 9.69292 20.1117 9.88827C20.307 10.0836 20.4167 10.3486 20.4167 10.6248C20.4167 10.9011 20.307 11.1661 20.1117 11.3614C19.9163 11.5568 19.6513 11.6665 19.3751 11.6665C19.0988 11.6665 18.8339 11.5568 18.6385 11.3614C18.4432 11.1661 18.3334 10.9011 18.3334 10.6248C18.3334 10.3486 18.4432 10.0836 18.6385 9.88827C18.8339 9.69292 19.0988 9.58317 19.3751 9.58317ZM15.0001 10.8332C16.1052 10.8332 17.165 11.2722 17.9464 12.0536C18.7278 12.835 19.1667 13.8948 19.1667 14.9998C19.1667 16.1049 18.7278 17.1647 17.9464 17.9461C17.165 18.7275 16.1052 19.1665 15.0001 19.1665C13.895 19.1665 12.8352 18.7275 12.0538 17.9461C11.2724 17.1647 10.8334 16.1049 10.8334 14.9998C10.8334 13.8948 11.2724 12.835 12.0538 12.0536C12.8352 11.2722 13.895 10.8332 15.0001 10.8332ZM15.0001 12.4998C14.337 12.4998 13.7012 12.7632 13.2323 13.2321C12.7635 13.7009 12.5001 14.3368 12.5001 14.9998C12.5001 15.6629 12.7635 16.2988 13.2323 16.7676C13.7012 17.2364 14.337 17.4998 15.0001 17.4998C15.6631 17.4998 16.299 17.2364 16.7678 16.7676C17.2367 16.2988 17.5001 15.6629 17.5001 14.9998C17.5001 14.3368 17.2367 13.7009 16.7678 13.2321C16.299 12.7632 15.6631 12.4998 15.0001 12.4998Z" fill="white"/>
</svg>
