<svg width="44" height="44" viewBox="0 0 44 44" fill="none" xmlns="http://www.w3.org/2000/svg">
<path d="M22 22C19.0666 22 16.5555 20.9556 14.4666 18.8667C12.3777 16.7778 11.3333 14.2667 11.3333 11.3334C11.3333 8.40002 12.3777 5.88891 14.4666 3.80002C16.5555 1.71113 19.0666 0.666687 22 0.666687C24.9333 0.666687 27.4444 1.71113 29.5333 3.80002C31.6222 5.88891 32.6666 8.40002 32.6666 11.3334C32.6666 14.2667 31.6222 16.7778 29.5333 18.8667C27.4444 20.9556 24.9333 22 22 22ZM0.666626 43.3334V35.8667C0.666626 34.3556 1.05596 32.9671 1.83463 31.7014C2.61329 30.4356 3.64618 29.4685 4.93329 28.8C7.68885 27.4222 10.4888 26.3894 13.3333 25.7014C16.1777 25.0134 19.0666 24.6685 22 24.6667C24.9333 24.6649 27.8222 25.0098 30.6666 25.7014C33.5111 26.3929 36.3111 27.4258 39.0666 28.8C40.3555 29.4667 41.3893 30.4338 42.168 31.7014C42.9466 32.9689 43.3351 34.3574 43.3333 35.8667V43.3334H0.666626Z" fill="white"/>
</svg>
