<svg width="30" height="30" viewBox="0 0 30 30" fill="none" xmlns="http://www.w3.org/2000/svg">
<rect width="30" height="30" rx="10" fill="#383838"/>
<path d="M21.3392 10.8293C21.2759 10.581 21.0959 10.3935 20.8901 10.336C20.5251 10.2335 18.7509 10.0002 15.0009 10.0002C11.2509 10.0002 9.47758 10.2335 9.11008 10.336C8.90675 10.3927 8.72675 10.5802 8.66258 10.8293C8.57175 11.1827 8.33425 12.6627 8.33425 15.0002C8.33425 17.3377 8.57175 18.8168 8.66258 19.1718C8.72591 19.4193 8.90591 19.6068 9.11091 19.6635C9.47758 19.7668 11.2501 20.0002 15.0001 20.0002C18.7501 20.0002 20.5242 19.7668 20.8909 19.6643C21.0942 19.6077 21.2742 19.4202 21.3384 19.171C21.4301 18.8177 21.6667 17.3335 21.6667 15.0002C21.6667 12.6668 21.4301 11.1835 21.3392 10.8293ZM22.9526 10.4152C23.3334 11.9002 23.3334 15.0002 23.3334 15.0002C23.3334 15.0002 23.3334 18.1002 22.9526 19.5852C22.7409 20.406 22.1217 21.0518 21.3376 21.2702C19.9142 21.6668 15.0001 21.6668 15.0001 21.6668C15.0001 21.6668 10.0892 21.6668 8.66258 21.2702C7.87508 21.0485 7.25675 20.4035 7.04758 19.5852C6.66675 18.1002 6.66675 15.0002 6.66675 15.0002C6.66675 15.0002 6.66675 11.9002 7.04758 10.4152C7.25925 9.59433 7.87841 8.9485 8.66258 8.73016C10.0901 8.3335 15.0009 8.3335 15.0009 8.3335C15.0009 8.3335 19.9142 8.3335 21.3384 8.73016C22.1251 8.95183 22.7442 9.59683 22.9534 10.4152M13.3342 17.9168V12.0835L18.3342 15.0002L13.3342 17.9168Z" fill="white"/>
</svg>
