<svg width="202" height="109" viewBox="0 0 202 109" fill="none" xmlns="http://www.w3.org/2000/svg">
<g clip-path="url(#clip0_70_223)">
<path d="M82.6667 33V29.3333C82.6667 28.3609 82.2804 27.4283 81.5927 26.7406C80.9051 26.053 79.9725 25.6667 79 25.6667C78.0275 25.6667 77.0949 26.053 76.4073 26.7406C75.7196 27.4283 75.3333 28.3609 75.3333 29.3333V33H71.6667C70.6942 33 69.7616 33.3863 69.0739 34.074C68.3863 34.7616 68 35.6942 68 36.6667C68 37.6391 68.3863 38.5718 69.0739 39.2594C69.7616 39.947 70.6942 40.3333 71.6667 40.3333H75.3333V44C75.3333 44.9725 75.7196 45.9051 76.4073 46.5927C77.0949 47.2804 78.0275 47.6667 79 47.6667C79.9725 47.6667 80.9051 47.2804 81.5927 46.5927C82.2804 45.9051 82.6667 44.9725 82.6667 44V40.3333H86.3333C87.3058 40.3333 88.2384 39.947 88.9261 39.2594C89.6137 38.5718 90 37.6391 90 36.6667C90 35.6942 89.6137 34.7616 88.9261 34.074C88.2384 33.3863 87.3058 33 86.3333 33H82.6667ZM91.166 18.3333H110.834C114.149 16.1333 117.998 14.8732 121.972 14.6874C125.946 14.5015 129.896 15.3968 133.402 17.2779C136.908 19.159 139.838 21.9555 141.88 25.3698C143.922 28.7841 145.001 32.6882 145 36.6667C145 48.818 135.151 73.3334 123 73.3334C115.755 73.3334 109.327 64.614 105.319 55H96.6807C92.6767 64.614 86.2453 73.3334 79 73.3334C66.8487 73.3334 57 48.818 57 36.6667C56.9994 32.6882 58.0776 28.7841 60.12 25.3698C62.1623 21.9555 65.0922 19.159 68.5979 17.2779C72.1035 15.3968 76.0536 14.5015 80.0278 14.6874C84.0019 14.8732 87.8512 16.1333 91.166 18.3333ZM123 33C123.972 33 124.905 32.6137 125.593 31.9261C126.28 31.2384 126.667 30.3058 126.667 29.3333C126.667 28.3609 126.28 27.4283 125.593 26.7406C124.905 26.053 123.972 25.6667 123 25.6667C122.028 25.6667 121.095 26.053 120.407 26.7406C119.72 27.4283 119.333 28.3609 119.333 29.3333C119.333 30.3058 119.72 31.2384 120.407 31.9261C121.095 32.6137 122.028 33 123 33ZM115.667 40.3333C116.639 40.3333 117.572 39.947 118.259 39.2594C118.947 38.5718 119.333 37.6391 119.333 36.6667C119.333 35.6942 118.947 34.7616 118.259 34.074C117.572 33.3863 116.639 33 115.667 33C114.694 33 113.762 33.3863 113.074 34.074C112.386 34.7616 112 35.6942 112 36.6667C112 37.6391 112.386 38.5718 113.074 39.2594C113.762 39.947 114.694 40.3333 115.667 40.3333ZM130.333 40.3333C131.306 40.3333 132.238 39.947 132.926 39.2594C133.614 38.5718 134 37.6391 134 36.6667C134 35.6942 133.614 34.7616 132.926 34.074C132.238 33.3863 131.306 33 130.333 33C129.361 33 128.428 33.3863 127.741 34.074C127.053 34.7616 126.667 35.6942 126.667 36.6667C126.667 37.6391 127.053 38.5718 127.741 39.2594C128.428 39.947 129.361 40.3333 130.333 40.3333ZM123 47.6667C123.972 47.6667 124.905 47.2804 125.593 46.5927C126.28 45.9051 126.667 44.9725 126.667 44C126.667 43.0276 126.28 42.0949 125.593 41.4073C124.905 40.7197 123.972 40.3333 123 40.3333C122.028 40.3333 121.095 40.7197 120.407 41.4073C119.72 42.0949 119.333 43.0276 119.333 44C119.333 44.9725 119.72 45.9051 120.407 46.5927C121.095 47.2804 122.028 47.6667 123 47.6667Z" fill="#FF0000"/>
</g>
<path d="M1.696 79.6H18.656V85.424H9.088V88.016H17.504V93.456H9.088V96.112H18.848V102H1.696V79.6ZM20.9943 86.032C20.9943 83.7707 21.8156 82.0533 23.4583 80.88C25.1223 79.6853 27.2343 79.088 29.7943 79.088C32.9729 79.088 35.7143 79.7067 38.0183 80.944V87.344C35.7143 85.872 33.2396 85.1573 30.5943 85.2C29.2716 85.2 28.6103 85.5307 28.6103 86.192C28.6103 86.4907 28.8129 86.768 29.2183 87.024C29.6236 87.2587 30.1356 87.472 30.7543 87.664C31.3943 87.856 32.0983 88.0693 32.8663 88.304C33.6556 88.5173 34.4343 88.8053 35.2023 89.168C35.9916 89.5307 36.6956 89.9573 37.3143 90.448C37.9543 90.9387 38.4769 91.6 38.8823 92.432C39.2876 93.264 39.4903 94.2027 39.4903 95.248C39.4903 100.091 36.3543 102.512 30.0823 102.512C26.6689 102.512 23.7036 101.808 21.1863 100.4V93.712C23.8529 95.4613 26.5729 96.336 29.3463 96.336C30.2849 96.336 30.9356 96.2507 31.2983 96.08C31.6823 95.9093 31.8743 95.632 31.8743 95.248C31.8743 94.9067 31.6076 94.5973 31.0743 94.32C30.5409 94.0213 29.8689 93.776 29.0583 93.584C28.2476 93.3707 27.3729 93.072 26.4343 92.688C25.4956 92.304 24.6209 91.8667 23.8103 91.376C22.9996 90.8853 22.3276 90.1813 21.7943 89.264C21.2609 88.3253 20.9943 87.248 20.9943 86.032ZM41.9148 79.6H51.7068C58.4054 79.6 61.7548 82.3627 61.7548 87.888C61.7548 93.392 58.4054 96.144 51.7068 96.144H49.3068V102H41.9148V79.6ZM54.4268 87.888C54.4268 86.416 53.4988 85.68 51.6428 85.68H49.3068V90.064H51.6428C53.4988 90.064 54.4268 89.3387 54.4268 87.888ZM66.2173 99.216C64.1053 96.9973 63.0493 94.192 63.0493 90.8C63.0493 87.408 64.1053 84.6133 66.2173 82.416C68.3293 80.1973 71.3159 79.088 75.1773 79.088C79.0386 79.088 82.0253 80.1973 84.1373 82.416C86.2493 84.6133 87.3053 87.408 87.3053 90.8C87.3053 94.192 86.2493 96.9973 84.1373 99.216C82.0253 101.413 79.0386 102.512 75.1773 102.512C71.3159 102.512 68.3293 101.413 66.2173 99.216ZM78.5053 94.48C79.3159 93.584 79.7213 92.3573 79.7213 90.8C79.7213 89.2427 79.3159 88.016 78.5053 87.12C77.7159 86.224 76.6066 85.776 75.1773 85.776C73.7479 85.776 72.6279 86.224 71.8173 87.12C71.0279 88.016 70.6333 89.2427 70.6333 90.8C70.6333 92.3573 71.0279 93.584 71.8173 94.48C72.6279 95.376 73.7479 95.824 75.1773 95.824C76.6066 95.824 77.7159 95.376 78.5053 94.48ZM97.1505 102H89.7585V79.6H100.159C101.439 79.6 102.612 79.728 103.679 79.984C104.745 80.24 105.748 80.656 106.687 81.232C107.625 81.808 108.361 82.6293 108.895 83.696C109.428 84.7627 109.695 86.032 109.695 87.504C109.695 90.6827 108.415 92.912 105.855 94.192L111.615 102H103.487L98.8785 95.376H97.1505V102ZM97.1505 85.616V89.84H99.9985C100.703 89.84 101.257 89.648 101.663 89.264C102.068 88.88 102.271 88.368 102.271 87.728C102.271 87.088 102.068 86.576 101.663 86.192C101.257 85.808 100.703 85.616 99.9985 85.616H97.1505ZM111.134 79.6H130.526V86.064H124.51V102H117.15V86.064H111.134V79.6Z" fill="white"/>
<path d="M146.074 79.6H153.434V102H146.074V94.032H139.994V102H132.602V79.6H139.994V87.568H146.074V79.6ZM170.005 79.6H177.365V93.296C177.365 94.96 177.077 96.4107 176.501 97.648C175.925 98.864 175.136 99.824 174.133 100.528C173.13 101.211 172.032 101.712 170.837 102.032C169.664 102.352 168.373 102.512 166.965 102.512C165.557 102.512 164.256 102.352 163.061 102.032C161.888 101.712 160.8 101.211 159.797 100.528C158.794 99.824 158.005 98.864 157.429 97.648C156.853 96.4107 156.565 94.96 156.565 93.296V79.6H163.957V92.944C163.957 94.9067 164.96 95.888 166.965 95.888C168.992 95.888 170.005 94.9067 170.005 92.944V79.6ZM180.509 79.6H191.709C196.999 79.6 199.645 81.488 199.645 85.264C199.645 87.6533 198.578 89.264 196.444 90.096C199.175 90.928 200.541 92.7627 200.541 95.6C200.541 99.8667 197.501 102 191.421 102H180.509V79.6ZM191.037 96.56C192.466 96.56 193.181 95.952 193.181 94.736C193.181 93.52 192.466 92.912 191.037 92.912H187.901V96.56H191.037ZM192.541 86.704C192.541 86.2133 192.381 85.8187 192.061 85.52C191.741 85.2 191.282 85.04 190.685 85.04H187.901V88.336L190.685 88.368C191.282 88.368 191.741 88.208 192.061 87.888C192.381 87.568 192.541 87.1733 192.541 86.704Z" fill="#FF0000"/>
<defs>
<clipPath id="clip0_70_223">
<rect width="88" height="88" fill="white" transform="translate(57)"/>
</clipPath>
</defs>
</svg>
